<svg width="178" height="7" viewBox="0 0 178 7" fill="none" xmlns="http://www.w3.org/2000/svg">
<path d="M150.061 4.67615C149.829 4.67908 149.493 4.78716 149.389 4.66218C149.216 4.45947 149.058 4.74495 148.911 4.56998C148.857 4.50331 148.647 4.58735 148.508 4.61156C148.364 4.63583 148.22 4.68254 148.077 4.69559C148.017 4.70195 147.952 4.64102 147.89 4.61094C147.957 4.58484 148.036 4.5726 148.087 4.52705C148.136 4.48434 148.189 4.39948 148.183 4.34061C148.177 4.28736 148.096 4.20137 148.047 4.20199C147.851 4.20165 147.668 4.1759 147.485 4.35783C147.198 4.64493 147.021 4.64717 146.708 4.35642C146.434 4.09886 146.049 4.36193 145.814 4.05337C145.695 4.22607 145.61 4.44045 145.392 4.50214C145.399 4.85288 145.293 4.62688 145.156 4.59212C145.014 4.55462 144.834 4.30992 144.662 4.56749C144.659 4.57033 144.522 4.47945 144.457 4.41852C144.412 4.37698 144.377 4.26516 144.354 4.27106C144.223 4.29797 143.984 4.11856 143.954 3.96458C143.949 3.93658 143.871 3.92353 143.667 3.86997C143.572 3.85995 143.626 3.90416 143.68 3.90348C143.729 3.90286 143.821 3.84557 143.818 3.82877C143.802 3.74477 143.762 3.66388 143.73 3.58289C143.662 3.65954 143.596 3.73334 143.667 3.86997C143.81 4.0113 143.791 4.11819 143.775 4.22225C143.586 4.16569 143.327 4.45804 143.199 4.07235C143.175 4.00248 143.061 3.96743 142.991 3.9178C142.966 4.01073 142.896 4.15475 142.922 4.18249C143.042 4.30166 143.059 4.39968 142.916 4.4885C142.836 4.53721 142.714 4.60892 142.657 4.57596C142.296 4.35598 141.957 4.37711 141.594 4.57815C141.525 4.61551 141.359 4.53621 141.283 4.45578C141.182 4.35041 141.123 4.19398 141.052 4.05735C140.864 3.69205 140.565 3.65653 140.312 3.97126C140.292 3.99678 140.29 4.05013 140.298 4.08932C140.309 4.15092 140.333 4.20956 140.352 4.26826C140.282 4.26634 140.167 4.29025 140.148 4.25399C139.927 3.82457 139.659 3.61745 139.228 3.95407C139.185 3.9883 139.075 3.63605 139.014 3.95958C139.007 4.00457 139.13 4.12091 139.197 4.12848C139.403 4.14833 139.611 4.12605 139.817 4.13187C139.858 4.13416 139.898 4.18418 139.939 4.21173C139.898 4.24031 139.853 4.29702 139.817 4.29186C139.37 4.22452 138.898 4.48589 138.474 4.15725C138.089 4.24631 137.751 3.97553 137.375 3.98869C137.087 4.00075 137.052 3.87209 137.216 3.64548C137.313 3.51516 137.331 3.34092 137.184 3.32874C137.019 3.31678 136.711 3.1635 136.679 3.47545C136.64 3.86606 136.503 4.00812 136.155 4.0097C136.022 4.01139 135.892 4.13652 135.753 4.16914C135.663 4.18992 135.48 4.16978 135.472 4.13059C135.35 3.6101 134.907 3.78971 134.741 3.88162C134.426 4.05398 134.195 4.09619 133.919 3.86392C133.888 3.83625 133.816 3.86802 133.767 3.86022C133.646 3.84211 133.527 3.81273 133.406 3.789C133.521 3.70055 133.638 3.61206 133.753 3.5208C133.788 3.49229 133.816 3.45545 133.849 3.42416C133.805 3.39946 133.766 3.36066 133.72 3.35563C133.642 3.34538 133.508 3.32743 133.496 3.35846C133.264 3.9143 132.687 3.54267 132.352 3.85845C132.27 3.93525 131.957 3.82133 131.817 3.70241C131.58 3.50613 131.431 3.51082 131.251 3.76569C131.11 3.96674 130.974 4.01898 130.903 3.68308C130.864 3.49833 130.723 3.51134 130.616 3.63056C130.309 3.97685 130.256 3.99156 130.033 3.70809C129.973 3.63307 129.974 3.49554 129.911 3.42897C129.809 3.31799 129.538 3.43087 129.514 3.59396C129.491 3.75423 129.552 3.92466 129.297 3.92507C129.086 3.92493 129.036 3.84136 129.036 3.63367C129.035 3.56071 128.943 3.42435 128.889 3.42222C128.475 3.41062 128.057 3.39062 127.646 3.44353C127.474 3.46535 127.321 3.74795 127.156 3.75003C126.991 3.75211 126.828 3.4707 126.658 3.46162C126.398 3.44525 126.103 3.3339 125.859 3.60361C125.735 3.7399 125.563 3.35756 125.358 3.60995C125.289 3.69501 125.042 3.66726 124.889 3.78987C124.843 3.82694 124.681 3.64936 124.573 3.64792C124.352 3.6479 124.115 3.65931 123.913 3.74606C123.741 3.8212 123.771 3.72821 123.752 3.63022C123.713 3.42863 123.587 3.43303 123.478 3.53264C123.223 3.7688 123.127 3.69985 123.123 3.35469C123.122 3.28734 123.067 3.22348 123.038 3.15649C123.016 3.22974 123.012 3.33083 122.966 3.37351C122.859 3.47309 122.737 3.55603 122.611 3.62497C122.555 3.65655 122.472 3.63233 122.403 3.63602C122.404 3.54057 122.367 3.40353 122.412 3.35243C122.585 3.16221 122.383 3.09459 122.318 3.05611C122.059 2.89941 121.887 2.95771 121.698 3.28566C121.552 3.5373 121.31 3.34108 121.147 3.46944C120.816 3.15085 120.337 3.54421 120.011 3.18628C119.998 3.17241 119.939 3.18157 119.939 3.18719C119.888 3.5976 119.626 3.44935 119.399 3.4494C119.126 3.45285 118.854 3.52083 118.579 3.53834C118.296 3.55595 118.008 3.55959 117.725 3.54913C117.449 3.53857 117.176 3.48589 116.903 3.48092C116.754 3.47719 116.603 3.5661 116.456 3.56234C116.289 3.55884 116.115 3.4628 115.953 3.47888C115.837 3.49156 115.739 3.68365 115.624 3.69353C115.472 3.70948 115.316 3.60479 115.159 3.58994C114.953 3.57009 114.745 3.59517 114.539 3.58654C114.518 3.5868 114.468 3.46956 114.483 3.44972C114.609 3.2657 114.746 3.08996 115.109 2.90855C115.212 2.90725 115.083 2.90327 114.955 2.91331C114.927 2.91647 114.879 2.97883 114.884 2.99279C114.932 3.11007 114.98 3.23295 115.053 3.33026C115.071 3.35248 115.188 3.26961 115.26 3.26028C115.327 3.25102 115.4 3.27256 115.469 3.28852C115.526 3.30183 115.62 3.3624 115.627 3.35108C115.69 3.24363 115.738 3.12515 115.79 3.00661C115.718 2.97104 115.645 2.92144 115.567 2.90277C115.495 2.88684 115.416 2.90188 115.107 2.90578C114.846 2.6256 114.639 2.79099 114.518 2.74201C114.202 2.61408 114.319 3.10096 114.12 3.08101C113.832 3.04817 113.748 3.1643 113.783 3.46136C113.789 3.49778 113.623 3.61495 113.574 3.59311C113.418 3.52771 113.283 3.40313 113.132 3.31802C113.073 3.28509 112.939 3.26994 112.931 3.28968C112.789 3.66195 112.48 3.41607 112.283 3.51398C112.124 3.59176 112.043 3.66857 111.894 3.51608C111.85 3.47173 111.698 3.48207 111.64 3.53052C111.329 3.78704 111.308 3.57961 111.3 3.30467C111.299 3.25135 111.234 3.20165 111.2 3.14876C111.182 3.19669 111.147 3.24766 111.15 3.29533C111.179 3.53353 111.129 3.67168 110.871 3.63845C110.67 3.61292 110.432 3.68329 110.274 3.58425C110.162 3.5155 110.153 3.2153 109.923 3.31363C109.79 3.37145 109.694 3.52421 109.563 3.59041C109.456 3.6451 109.276 3.69507 109.209 3.63699C108.995 3.44603 108.838 3.43678 108.603 3.61376C108.476 3.71079 108.186 3.81829 108.189 3.4113C108.138 3.41756 108.086 3.42382 108.035 3.43008C108.058 3.60942 107.989 3.67484 107.822 3.67414C107.381 3.67128 106.941 3.68526 106.501 3.68239C106.442 3.68314 106.349 3.62257 106.335 3.57222C106.319 3.51068 106.356 3.40917 106.402 3.35808C106.468 3.28146 106.568 3.24652 106.639 3.17546C106.7 3.11294 106.738 3.02546 106.785 2.94908C106.703 2.91925 106.573 2.83669 106.542 2.86514C106.37 3.04133 106.223 3.07405 105.998 2.9478C105.902 2.89288 105.674 2.97715 105.588 3.07927C105.397 3.3062 105.195 3.38173 104.914 3.38247C104.662 3.38285 104.419 3.45609 104.297 3.786C104.212 4.01441 104.128 3.66464 104.026 3.72207C103.655 3.93724 103.29 3.98675 102.906 3.74181C102.841 3.70053 102.682 3.73622 102.629 3.80144C102.249 4.25811 101.647 3.90365 101.245 4.26517C101.001 4.09143 100.654 4.1772 100.452 3.88786C100.332 3.71537 100.211 3.72251 100.074 3.88422C100.036 3.9296 99.9281 3.95061 99.8712 3.92887C99.7393 3.87721 99.856 3.53614 99.6202 3.62051C99.5152 3.65832 99.4644 3.91998 99.3719 3.93237C99.156 3.96036 98.9188 3.92967 98.7094 3.85934C98.4846 3.78359 98.2753 3.72449 98.0767 3.8954C97.9392 4.01501 97.8167 4.29722 97.7287 3.85208C97.7204 3.81008 97.4963 3.79607 97.3754 3.80602C96.6965 3.85107 96.0363 3.75556 95.3873 3.52519C95.3124 3.49807 95.2048 3.54153 95.1255 3.58182C94.9951 3.64802 94.8779 3.74493 94.7502 3.82232C94.4334 4.01436 94.1688 4.05699 93.6278 4.02172C93.4759 4.01242 93.272 3.97008 93.1778 4.05547C92.964 4.24902 92.9603 4.15645 92.9344 3.93786C92.9287 3.89864 92.7039 3.83131 92.6735 3.86818C92.3845 4.21704 91.9036 3.84702 91.6328 4.2125C91.2998 4.13812 90.9669 4.06373 90.6338 3.98655C90.5435 3.96523 90.4344 3.88522 90.3704 3.91971C90.217 3.99742 90.0874 4.12816 89.9472 4.23659C89.8052 4.00262 89.6716 4.22322 89.5328 4.23901C89.3528 4.25532 89.145 4.31126 88.9948 4.23738C88.6037 4.04585 88.2057 4.12104 87.8089 4.08957C87.4404 4.06054 87.0667 4.02316 86.7077 3.92384C86.5476 3.88096 86.4443 3.8542 86.283 3.9292C86.132 3.99847 85.9081 3.99568 85.935 3.6782C85.835 3.71314 85.7376 3.74805 85.5676 3.73335C85.521 3.7171 85.5446 3.75048 85.5708 3.78383C85.5936 3.75828 85.6165 3.73274 85.6393 3.70719C85.6081 3.68232 85.5794 3.65181 85.5457 3.63259C85.5405 3.62985 85.5153 3.66665 85.5701 3.73332C85.5309 4.08745 85.2363 3.99855 85.1985 3.8587C85.0905 3.45871 84.9582 3.58387 84.8036 3.77668C84.6516 3.96383 84.4851 4.03329 84.2778 3.91803C83.9693 3.74511 83.6725 3.6843 83.3826 3.96863C83.3598 3.99137 83.1888 3.90371 83.1883 3.86723C83.1745 3.38186 82.9678 3.12065 82.582 3.14516C82.5126 3.14885 82.4462 3.19178 82.3796 3.21508C82.4266 3.27342 82.4737 3.32896 82.5156 3.39018C82.5733 3.47365 82.6259 3.5628 82.6811 3.64911C82.4806 3.67128 82.1353 3.64196 82.1106 3.72647C82.0316 3.9941 81.9927 3.96933 81.7954 3.83991C81.5722 3.69398 81.313 3.5513 81.099 3.93009C81.0487 4.02054 80.7661 4.06621 80.6829 3.9999C80.4124 3.77878 80.191 3.97524 79.947 4.01761C79.7364 4.05395 79.5241 4.36816 79.2934 4.03709C79.2646 3.99816 79.1392 4.05307 79.0668 4.03153C78.6999 3.91548 78.3766 4.20583 78.0024 4.12916C77.6308 4.05246 77.245 4.07417 76.864 4.06776C76.7764 4.06605 76.6876 4.16541 76.5975 4.16935C76.5255 4.17026 76.4448 4.10392 76.3799 4.05422C76.3565 4.03768 76.3451 3.94801 76.3553 3.94227C76.4396 3.89349 76.5292 3.85587 76.6162 3.81548C76.4876 3.62064 76.3641 3.42012 76.2228 3.23667C76.2019 3.20886 76.0555 3.23597 76.0252 3.28407C75.947 3.41135 75.8665 3.55831 75.8452 3.70733C75.8121 3.9379 75.778 3.885 75.6326 3.7886C75.5159 3.7143 75.3306 3.71944 75.1895 3.75771C75.0869 3.78707 75.0063 3.92281 74.9173 4.01374C75.1865 4.33592 74.9701 4.319 74.7909 4.19497C74.6143 4.0709 74.4777 4.05859 74.3065 4.15898C74.2247 4.20492 74.1324 4.22573 74.0426 4.25493C74.0725 4.17597 74.1024 4.0942 74.1297 4.01527C74.0109 3.9887 73.8579 3.89801 73.7788 3.94673C73.5949 4.06131 73.4477 4.23157 73.2768 3.94464C73.0034 4.10807 72.645 4.05646 72.4301 4.3651C72.3366 4.49819 72.2055 4.51669 72.1162 4.37468C71.977 4.15751 71.843 4.14237 71.6467 4.2936C71.4759 4.42486 71.3352 4.4968 71.063 4.34306C70.7779 4.18388 70.3526 4.338 69.9919 4.31168C69.7935 4.29735 69.6243 4.14512 69.4423 4.41124C69.369 4.51881 69.0837 4.5561 68.9491 4.49044C68.5062 4.2715 68.1074 4.29056 67.6648 4.50104C67.4908 4.58462 67.1393 4.67607 67.0951 4.23037C66.9014 4.38437 66.7464 4.34142 66.5286 4.21787C66.3835 4.13551 66.0981 4.36925 65.9325 4.30118C65.7204 4.21405 65.5872 4.26905 65.3894 4.30242C64.9477 4.37816 64.5103 4.5998 64.0343 4.40934C63.8687 4.34407 63.7225 4.38802 63.6729 4.12201C63.6425 3.96242 63.4685 3.83832 63.3012 4.04251C63.2281 3.96204 63.0985 3.88789 63.0948 3.80374C63.0782 3.50364 63.0119 3.5578 62.8517 3.71138C62.7932 3.76826 62.6537 3.72231 62.5509 3.73764C62.5252 3.74077 62.508 3.80834 62.4853 3.84512C62.5293 3.86421 62.5759 3.88326 62.6199 3.90236C62.6639 3.92145 62.7079 3.94054 62.7519 3.96244C62.5835 4.07402 62.4593 4.22715 62.3482 4.40537C62.3205 4.44782 62.096 4.40294 62.0075 4.33108C61.672 4.05185 61.6796 4.04052 61.471 4.23962C61.3921 4.31359 61.3133 4.39036 61.2553 4.48372C61.1114 4.71006 61.0596 4.47777 60.979 4.41704C60.9427 4.39224 60.9058 4.32254 60.913 4.28315C60.9634 3.99343 60.4716 4.18769 60.5831 3.84387C60.5831 3.84106 60.4586 3.76686 60.3916 3.76489C60.1856 3.75627 59.9771 3.75609 59.7714 3.77553C59.7303 3.77886 59.6571 3.89485 59.6655 3.94807C59.7299 4.35983 59.377 4.33903 59.2006 4.43387C59.0318 4.52301 58.7387 4.54636 58.5984 4.44148C58.3567 4.2621 58.2075 4.46886 58.0198 4.48527C57.9452 4.49182 57.874 4.55727 57.8018 4.55257C57.449 4.53738 57.056 4.39359 56.7589 4.51802C56.5055 4.62507 56.2965 4.38353 56.0467 4.58034C55.9091 4.68873 55.5985 4.54951 55.3712 4.49344C55.2576 4.46681 55.1586 4.37263 55.0523 4.30942C54.9952 4.27366 54.9196 4.19322 54.8889 4.21045C54.7713 4.27649 54.667 4.37042 54.5574 4.456C54.3997 4.19698 54.3428 4.58221 54.1953 4.52513C54.0945 4.48711 54.0328 4.29423 53.8343 4.47355C53.6638 4.63007 53.3815 4.48769 53.1357 4.38695C52.9675 4.3189 52.7255 4.72331 52.4771 4.42052C51.9213 4.43034 51.368 4.43733 50.8122 4.45838C50.6682 4.463 50.5051 4.59697 50.3887 4.55073C49.561 4.22999 48.7172 4.47079 47.8801 4.43364C47.5144 4.41861 47.1193 4.31695 46.7754 4.59915C46.7168 4.6476 46.5671 4.61581 46.4867 4.56911C46.3778 4.50032 46.2283 4.28329 46.213 4.29471C45.7597 4.68214 45.2092 4.30177 44.7385 4.52663C44.5849 4.59873 44.334 4.70014 44.2481 4.62544C43.8785 4.30173 43.3864 4.67561 43.0319 4.32645C42.985 4.27933 42.8103 4.30679 42.7467 4.36373C42.4135 4.68228 41.93 4.30387 41.6128 4.66993C41.6002 4.68413 41.5275 4.63453 41.4835 4.61824C41.3232 4.55852 41.1554 4.52134 41.0076 4.43901C40.8054 4.32649 40.655 4.64273 40.4937 4.51005C40.3298 4.37459 40.2156 4.49953 40.0716 4.50977C39.5289 4.54749 38.9828 4.51509 38.4402 4.55001C37.9926 4.57811 37.5514 4.49106 37.0958 4.69889C36.8374 4.81722 36.4541 4.8361 36.1349 4.63243C36.0181 4.55813 35.838 4.56321 35.6941 4.58187C34.9436 4.66993 34.1681 4.41028 33.4338 4.75915C33.0076 4.43896 32.5368 4.65821 32.0886 4.6358C31.7486 4.61764 31.3952 4.55474 31.0558 4.78917C30.9155 4.88637 30.6191 4.86204 30.466 4.76294C30.1156 4.53441 29.7628 4.7241 29.4171 4.6583C28.8638 5.07786 28.4378 4.76889 28.026 4.36994C27.7394 4.09289 27.7213 4.08189 27.491 4.39634C27.3088 4.64562 27.1242 4.90616 27.0069 5.19673C26.9096 5.44213 26.7936 5.42956 26.6888 5.27933C26.4215 4.90381 25.9793 4.94868 25.6444 4.72557C25.4965 4.6264 25.18 4.6332 25.0501 4.7443C24.8082 4.95224 24.5626 4.87114 24.3209 4.88823C24.1537 4.90156 23.9616 4.97135 23.8225 4.76541C23.7911 4.7209 23.6752 4.71956 23.6085 4.73724C23.4469 4.78138 23.2908 4.85071 23.1294 4.90888C22.991 4.95834 22.8813 4.62574 22.6942 4.89753C22.6411 4.97398 22.3337 4.88524 22.1322 4.82885C21.7086 4.7079 21.2418 4.63521 20.8234 4.93799C20.6398 5.06941 20.4535 4.99879 20.2497 4.96207C20.0717 4.93064 19.8678 4.67781 19.6808 4.95241C19.0997 5.00466 18.5351 4.9332 17.9817 4.73249C17.9404 4.71898 17.8778 4.65802 17.8753 4.66367C17.6576 4.9555 17.3329 4.72104 17.0875 4.85324C17.021 4.88776 16.9731 4.96695 16.925 5.03211C16.8542 5.13124 16.8155 5.12611 16.6989 5.06022C16.3671 4.87917 15.9456 5.13428 15.6227 4.83525C14.8935 5.18405 14.0732 5.04285 13.3254 5.34699C13.0642 5.45413 12.7015 5.26786 12.3868 5.2157C12.1727 5.18191 11.4913 5.23823 11.3017 5.30237C10.9762 5.41313 10.6666 5.56579 10.2993 5.42167C10.0147 5.31019 9.77574 5.54336 9.56161 5.70884C8.73563 6.34234 8.44069 6.42746 7.19393 6.1485C6.92289 6.08737 6.72166 5.64366 6.38323 5.95385C6.20616 5.58842 5.82831 5.62967 5.54848 5.48445C5.35415 5.38306 5.32906 5.02694 4.98787 5.11825C4.77494 5.17426 4.51242 4.97269 4.2784 4.98968C3.59435 5.04042 2.89961 4.85553 2.22337 5.11666C2.16189 5.13989 1.96174 4.98525 1.9635 4.92067C1.9854 4.41239 1.63532 4.4112 1.33836 4.33636C1.24282 4.31231 1.13491 4.3277 1.04687 4.28672C0.857902 4.2021 0.811423 3.98657 0.932936 3.82506C1.01437 3.75106 1.08015 3.66042 1.1643 3.59761C1.4269 3.39783 1.20422 3.29399 1.09468 3.1803C1.03732 3.12208 0.946924 3.09797 0.874367 3.05959C0.945436 2.98011 1.02084 2.83602 1.09293 2.83791C1.31955 2.84628 1.45024 2.79972 1.52919 2.52929C1.55397 2.4532 1.89485 2.54151 2.01976 2.44451C2.35621 2.18205 2.75588 2.03387 3.07944 1.76877C3.25013 1.62909 3.3057 1.74907 3.42945 1.76435C3.66661 1.79223 3.89175 1.88762 4.16081 1.7916C4.4427 1.69262 4.77843 1.781 5.08698 1.75465C5.48296 1.72158 5.88335 1.83441 6.27675 1.59649C6.42746 1.50478 6.70301 1.51533 6.93644 1.65552C7.05835 1.72976 7.28052 1.58943 7.46035 1.5619C7.56312 1.54657 7.68732 1.59833 7.7665 1.54962C8.25691 1.24873 8.78615 1.16908 9.33433 1.16216C9.44242 1.16079 9.57469 1.03563 9.64982 1.07398C10.0904 1.30979 10.6236 1.14027 11.0402 1.51671C11.3891 1.83226 11.8013 2.06001 12.2521 1.68665C12.5145 1.46723 12.7488 1.88246 13.0656 1.69042C13.2751 1.56428 13.6558 1.54825 13.9417 1.76355C14.0144 1.81877 14.1564 1.84785 14.2279 1.80485C14.7952 1.47492 15.4363 2.10674 15.9864 1.63951C16.2859 1.91078 16.5754 1.80609 16.8612 1.61163C17.2518 1.96595 17.4061 1.543 17.6455 1.34632C17.8137 1.20948 17.9737 1.04187 18.2524 1.29656C18.4711 1.49588 18.8443 1.49117 19.144 1.58281C19.8417 1.79853 20.0219 1.79906 20.8093 1.57863C20.8812 1.55807 20.9611 1.56829 21.0356 1.55893C21.5058 1.49405 22.0052 1.69825 22.4464 1.37272C22.718 1.68364 22.9814 1.34352 23.2517 1.34852C23.3624 1.34993 23.4718 1.2419 23.5873 1.22079C23.8544 1.17252 24.1261 1.08208 24.3787 1.31184C24.4854 1.40873 24.649 1.51612 24.7671 1.49218C25.0675 1.43787 25.3596 1.93937 25.6501 1.50348C26.043 1.83813 26.4928 1.57985 26.9106 1.65036C27.3182 1.71818 27.6998 1.57023 28.0872 1.4671C28.372 1.39334 28.6569 1.3252 28.939 1.24866C29.0801 1.21039 29.2154 1.12168 29.3544 1.11712C29.8947 1.10188 29.9001 1.11865 30.2133 0.850872C30.333 0.748323 30.4867 0.695862 30.5247 0.846941C30.6818 1.46522 31.094 1.28882 31.4352 1.1975C32.0432 1.03546 32.6582 1.02489 33.1114 1.2409C33.549 1.44868 33.9859 1.60033 34.4402 1.29148C34.4989 1.25145 34.5807 1.20831 34.6427 1.22156C34.8568 1.26096 35.15 1.4425 35.2646 1.35124C35.4864 1.17443 35.6977 1.19421 35.914 1.20552C36.5425 1.23687 37.1686 1.28791 37.7949 1.35298C37.9341 1.36806 38.074 1.44207 38.1985 1.51628C38.3723 1.62074 38.5266 1.81525 38.7057 1.52391C38.7234 1.49562 38.8575 1.51638 38.9069 1.55786C39.1308 1.75711 39.3337 1.72367 39.4903 1.48594C39.6443 1.25104 39.9069 1.25334 40.0444 1.33861C40.4388 1.58623 40.841 1.4324 41.2353 1.47514C41.3126 1.48258 41.4056 1.50386 41.4643 1.46663C41.6533 1.34917 41.8343 1.21217 42.0128 1.0752C42.2626 0.884001 42.3722 1.20819 42.5555 1.24517C42.7748 1.29011 43.004 1.29844 43.1511 1.53515C43.1643 1.55744 43.2565 1.52259 43.3105 1.5163C43.7756 1.4571 44.2129 1.22424 44.6946 1.26026C44.7925 1.26745 44.9626 1.27933 44.9708 1.31852C45.0641 1.77763 45.2242 1.61002 45.4172 1.4027C45.4832 1.3317 45.5876 1.24618 45.665 1.25643C46.1369 1.32064 46.6278 1.06465 47.0924 1.37032C47.2066 1.44466 47.3939 1.39458 47.5457 1.39267C47.9344 1.39057 48.3259 1.41369 48.7115 1.36953C49.0533 1.33154 49.437 1.5428 49.739 1.205C50.0296 1.58865 50.4874 1.15346 50.8002 1.46666C50.8445 1.511 50.9726 1.46448 51.0599 1.44654C51.178 1.41979 51.2932 1.36781 51.4113 1.34948C51.6528 1.31275 51.8628 1.63006 52.1528 1.35696C52.3105 1.20903 52.6584 1.446 52.8531 1.1685C53.0499 1.26144 53.2719 1.31477 53.4359 1.45584C53.5946 1.59136 53.691 1.68837 53.8323 1.45925C53.8701 1.39703 53.9927 1.3169 54.0031 1.32518C54.3346 1.69428 54.6489 1.30581 54.9682 1.313C55.0197 1.31516 55.0747 1.39305 55.1217 1.44578C55.3646 1.72338 55.8008 1.82172 56.1128 1.6578C56.3839 1.51685 56.6609 1.44319 56.9697 1.43929C57.2323 1.43598 57.4933 1.32042 57.7579 1.27498C57.9377 1.24183 58.198 1.4715 58.2108 1.67061C58.2137 1.70144 58.1112 1.73642 58.0654 1.7791C58.0273 1.81606 58.0047 1.86687 57.9744 1.91216C58.1697 1.88443 58.4224 2.12542 58.5492 1.77018C58.5927 1.74999 58.6337 1.73263 58.6772 1.71243C58.6329 1.6737 58.5913 1.63774 58.5471 1.599C58.6738 1.24377 58.9641 1.39728 59.1143 1.47396C59.6169 1.73144 60.1262 1.49768 60.6265 1.57275C60.8128 1.23922 61.0087 1.46689 61.1979 1.56554C61.5218 1.73546 61.832 1.84101 62.1764 1.59529C62.3549 1.46674 62.4463 1.57223 62.4467 1.80237C62.4477 1.88656 62.5235 1.97261 62.5657 2.05627C62.6267 1.99376 62.6929 1.93398 62.7513 1.8715C62.797 1.8204 62.8395 1.72164 62.8858 1.72105C63.0865 1.71571 63.3432 1.65914 63.4784 1.7669C63.6942 1.94099 63.7697 1.80532 63.9308 1.71908C64.0228 1.6674 64.3225 1.54855 64.3143 1.92193C64.3145 1.93316 64.4283 1.97663 64.4512 1.95669C64.5682 1.84576 64.6616 1.70425 64.7839 1.60447C64.8476 1.55315 64.9992 1.52878 65.0383 1.57039C65.2159 1.76742 65.4256 1.66092 65.6214 1.6781C66.0672 1.71738 66.5235 1.57128 66.9642 1.81832C67.0887 1.88691 67.289 1.85632 67.4597 1.71383C67.8519 1.3805 68.2176 1.39273 68.615 1.6796C68.6566 1.70995 68.6906 1.75723 68.7272 1.79606C68.8664 1.40979 69.1109 1.81086 69.3309 1.70705C69.661 1.55132 70.072 1.48439 70.3755 1.87349C70.4801 2.00688 70.5801 1.97475 70.6972 1.86662C70.8066 1.7642 70.9341 1.67278 71.0673 1.62338C71.1288 1.60015 71.261 1.67146 71.2979 1.74116C71.3559 1.84708 71.3628 1.98732 71.3927 2.11324C71.4743 2.05608 71.5605 1.94834 71.6378 1.95578C71.777 1.97087 71.9143 2.0421 72.0413 2.11347C72.1943 2.19855 72.2464 1.84145 72.4084 2.03025L73.2133 1.96957C73.3624 1.95366 73.5114 1.93494 73.6631 1.91899C73.9561 1.88442 74.2769 2.01509 74.5334 1.74241C74.5537 1.7197 74.6466 1.73537 74.6727 1.76591C74.7407 1.84645 74.7814 2.01714 74.8459 2.02474C74.9541 2.0346 75.066 1.92934 75.1816 1.90824C75.274 1.89023 75.3849 1.90848 75.4729 1.94666C75.7007 2.04482 76.0673 2.13562 76.2205 2.03265C76.3379 1.95258 76.3712 1.94093 76.5085 2.01217C76.6795 2.09702 76.9708 2.13544 77.1008 2.02996C77.432 1.76195 77.6318 1.88854 77.8847 2.14075C77.9577 2.2156 78.1631 2.17372 78.2938 2.12997C78.4271 2.08619 78.5388 1.96128 78.6692 1.89789C78.7563 1.8575 78.8718 1.83639 78.9622 1.85771C79.7161 2.03904 79.7215 2.06143 80.3337 1.82636C80.5335 1.74806 80.6984 1.55513 80.8971 1.80241C81.0983 1.63428 81.38 1.92542 81.5749 1.65913C81.6052 1.61946 81.8323 1.6615 81.8457 1.70623C81.9863 2.23772 82.2117 1.94579 82.4572 1.82201C82.5467 1.77597 82.8211 1.69111 82.809 1.9579C82.7952 2.29206 82.9143 2.34388 83.1713 2.31538C83.2253 2.30908 83.2833 2.42342 83.3506 2.44783C83.6324 2.55093 83.7729 2.46215 83.7454 2.11728C83.7113 1.66304 83.9342 1.98579 84.0546 1.94217C84.7747 1.6861 85.5149 1.80305 86.2453 1.75735C86.289 1.75399 86.3349 1.71973 86.3758 1.69395C86.5136 1.59679 86.5794 1.30687 86.7974 1.45007C86.9065 1.52166 86.9323 1.73464 87.034 1.84001C87.1801 1.98972 87.3653 1.98458 87.5021 1.80884C87.6541 1.61326 87.776 1.48262 87.8349 1.86639C87.8708 1.85471 87.9376 1.85105 87.94 1.83418C87.9611 1.66833 87.9104 1.53144 88.175 1.69089C88.437 1.85036 88.7901 1.8852 89.1014 1.87846C89.3845 1.87208 89.6845 1.78129 89.9402 1.64615C90.2241 1.49943 90.4348 1.47712 90.6926 1.70962C90.9582 1.95045 91.3185 1.94871 91.5755 1.7069C91.7255 1.56467 91.8612 1.50402 92.0492 1.51287C92.281 1.52117 92.5259 1.55737 92.7439 1.49288C92.9414 1.43425 93.0474 1.6799 93.2727 1.58163C93.4007 1.52388 93.6275 1.75397 93.8189 1.82172C93.8628 1.838 93.9488 1.71904 94.015 1.65926C94.0674 1.73157 94.13 1.79814 94.1722 1.8762C94.2567 2.04353 94.4164 2.05554 94.4558 1.91752C94.5102 1.73721 94.5345 1.62183 94.7382 1.64733C94.9985 1.68053 95.2506 1.66612 95.417 1.38897C95.4321 1.36352 95.5429 1.36773 95.5742 1.40102C95.8454 1.68106 96.2251 1.58084 96.5409 1.72C96.6858 1.78552 96.9467 1.65313 97.1074 1.53322C97.2833 1.40189 97.3765 1.44562 97.489 1.58734C97.5936 1.71793 97.7151 1.7613 97.8803 1.79571C98.079 1.8353 98.209 1.53054 98.3941 1.71625C98.6366 1.96017 98.727 1.58013 98.9197 1.55244C99.1047 1.52765 99.2504 1.23954 99.3098 1.6682C99.31 1.67662 99.413 1.68093 99.4643 1.66625C99.8543 1.56871 100.236 1.46565 100.621 1.72182C100.714 1.78519 100.873 1.7495 100.999 1.73669C101.308 1.70192 101.643 1.55174 101.914 1.64093C102.261 1.75444 102.506 1.41174 102.817 1.53412C102.999 1.29045 103.258 1.6352 103.502 1.39636C103.65 1.25417 104.024 1.31681 104.278 1.51847C104.362 1.58478 104.531 1.53493 104.659 1.52208C104.878 1.49687 105.132 1.61716 105.29 1.34853C105.432 1.5853 105.65 1.50396 105.848 1.50988C105.951 1.51139 106.065 1.53521 106.157 1.50037C106.429 1.39871 106.671 1.02798 106.946 1.17888C107.249 1.34625 107.532 1.30058 107.825 1.31091C108.134 1.32104 108.445 1.29466 108.754 1.31041C108.842 1.31492 108.921 1.42619 109.011 1.44189C109.057 1.44972 109.118 1.35353 109.171 1.30515C109.209 1.39449 109.238 1.49235 109.288 1.57311C109.309 1.60933 109.374 1.63377 109.417 1.63042C109.618 1.61385 109.886 1.6694 110.001 1.55008C110.301 1.23757 110.52 1.71473 110.75 1.58833C110.945 1.48203 111.076 1.27549 111.35 1.41797C111.589 1.54126 111.91 1.29583 112.14 1.59043C112.172 1.63213 112.29 1.59696 112.364 1.59602C112.712 1.59725 113.049 1.58738 113.393 1.73459C113.649 1.84643 113.854 1.3134 114.186 1.53935C114.551 1.2625 115.089 1.49707 115.405 1.05525C115.415 1.04109 115.609 1.12284 115.62 1.18164C115.656 1.38607 115.679 1.31001 115.833 1.27438C116.241 1.18222 116.657 1.12084 117.087 1.31468C117.327 1.42391 117.64 1.33576 117.921 1.36309C117.993 1.3706 118.056 1.46803 118.124 1.55979C118.125 1.57102 118.124 1.54857 118.124 1.52331C118.083 1.54067 118.039 1.54964 118.006 1.57532C117.996 1.58387 118.023 1.64247 118.033 1.67882C118.064 1.65318 118.094 1.62472 118.124 1.5626C118.334 1.4084 118.428 0.899214 118.79 1.30159C118.827 1.34323 118.953 1.35287 118.994 1.31587C119.383 0.976958 119.739 1.22506 120.107 1.36637C120.244 1.41797 120.383 1.47795 120.525 1.48458C120.698 1.49363 120.914 1.51616 121.039 1.41915C121.258 1.2536 121.365 1.57221 121.565 1.4911C121.724 1.42454 121.928 1.49494 122.105 1.46463C122.295 1.43136 122.474 1.32806 122.662 1.30044C122.865 1.26981 123.137 1.19902 123.269 1.3068C123.511 1.50302 123.667 1.20916 123.853 1.28539C124.032 1.35892 124.195 1.47754 124.374 1.55106C124.452 1.58376 124.575 1.58782 124.634 1.53936C124.891 1.32001 125.184 1.48471 125.454 1.4364C125.492 1.4303 125.576 1.52186 125.587 1.58066C125.642 1.84379 125.785 1.82514 125.897 1.67217C126.061 1.44557 126.261 1.39252 126.504 1.41472C126.699 1.4319 126.887 1.38182 127.082 1.55056C127.17 1.62522 127.435 1.40577 127.618 1.41469C127.909 1.42785 128.3 1.4145 128.46 1.60053C128.695 1.88103 128.855 1.50853 129.026 1.6467C129.203 1.79041 129.385 1.92845 129.577 2.04671C129.621 2.07422 129.721 2.01963 129.777 1.97963C129.803 1.95966 129.812 1.86132 129.791 1.8251C129.735 1.73317 129.65 1.66409 129.592 1.57501C129.56 1.52769 129.554 1.4576 129.536 1.3989C129.584 1.38986 129.651 1.35535 129.679 1.38024C129.872 1.53499 130.04 1.6339 130.29 1.45112C130.362 1.3997 130.592 1.68026 130.751 1.68105C130.914 1.68181 131.031 1.41651 131.266 1.66053C131.446 1.8491 131.735 1.9072 132.025 2.013C132.005 2.08342 131.919 2.18835 131.833 2.29048C131.874 2.31522 131.939 2.37333 131.957 2.35908C132.067 2.27349 132.163 2.17404 132.265 2.08014C132.221 2.06105 132.177 2.04196 132.025 2.013C132.039 1.71813 132.239 1.86155 132.391 1.88769C132.507 1.90868 132.622 2.0223 132.727 2.00694C133.048 1.95237 133.26 1.56519 133.708 1.8009C134.019 1.96538 134.465 1.82503 134.854 1.81731C135.373 1.80795 135.898 1.76203 136.37 2.08725C136.425 2.12585 136.546 2.14958 136.572 2.11839C136.719 1.93691 136.842 1.89606 137.014 2.09035C137.048 2.12641 137.181 2.05457 137.271 2.0394C137.492 2.00574 137.713 1.97207 137.934 1.94964C138.17 1.9242 138.318 2.04301 138.36 2.30631C138.391 2.49958 138.468 2.44248 138.538 2.34054C138.693 2.11126 138.81 2.05645 138.869 2.40373C138.905 2.39205 138.94 2.37476 138.979 2.36866C139.033 2.35956 139.087 2.36169 139.141 2.3582C139.142 2.44238 139.143 2.52657 139.144 2.61075C139.101 2.63095 139.06 2.64831 139.016 2.6685C139.06 2.70724 139.102 2.7432 139.202 2.74754C139.193 2.8038 139.152 2.83238 139.15 2.86609C139.127 3.10213 139.275 3.20691 139.443 3.28337C139.477 3.29979 139.546 3.27366 139.577 3.23959C139.607 3.20833 139.632 3.11821 139.614 3.09599C139.506 2.96543 139.389 2.84903 139.205 2.74751C139.148 2.72578 139.147 2.66965 139.147 2.61072C139.331 2.35299 139.594 2.5265 139.817 2.47877C140.299 2.37725 140.768 2.1861 141.278 2.23579C141.539 2.26057 141.466 2.42988 141.481 2.58125C141.334 2.58311 141.185 2.59341 141.038 2.58404C140.794 2.57029 140.614 2.65113 140.551 2.96908C140.552 2.9803 140.551 2.95785 140.551 2.9326C140.51 2.94995 140.466 2.95892 140.433 2.9846C140.423 2.99315 140.45 3.05176 140.46 3.08811C140.491 3.06246 140.521 3.03401 140.552 2.97188C140.878 3.14739 141.184 3.51961 141.596 3.09342C141.644 3.0451 141.726 3.03564 141.793 3.00954C141.707 2.97133 141.594 2.95873 141.547 2.88916C141.494 2.81404 141.5 2.68766 141.481 2.58406C141.737 2.63977 141.542 2.13142 141.858 2.23409C142.018 2.28539 142.223 2.21264 142.358 2.29233C142.43 2.33632 142.385 2.58949 142.422 2.74057C142.452 2.86088 142.523 2.96664 142.61 3.13955C142.559 3.12617 142.532 3.0844 142.507 3.08473C142.44 3.08838 142.373 3.11167 142.306 3.12655C142.315 3.16293 142.326 3.23296 142.333 3.23286C142.418 3.23179 142.501 3.21672 142.61 3.13955C142.656 3.07723 142.741 3.05652 142.81 3.08089C142.955 3.12959 142.977 3.44926 143.189 3.31468C143.225 3.29177 143.126 3.02919 143.096 2.87521C143.088 2.83883 143.098 2.7966 143.1 2.75448C143.169 2.75921 143.269 2.7355 143.303 2.77436C143.363 2.84658 143.385 2.95856 143.423 3.05632C143.458 2.96888 143.477 2.86198 143.533 2.79392C143.662 2.64073 143.775 2.40074 144.02 2.66989C144.088 2.74481 144.26 2.71176 144.384 2.71582C144.605 2.72425 144.841 2.65672 145.026 2.87049C145.032 2.87603 145.151 2.76226 145.217 2.70529C145.403 2.92748 145.768 2.91725 145.853 3.27824C145.855 3.29224 145.951 3.28262 146.002 3.28478C145.993 2.96213 146.119 2.95493 146.322 3.12357C146.358 3.15398 146.431 3.20639 146.446 3.19217C146.818 2.86471 147.186 3.10704 147.561 3.17529C147.785 3.21736 148.016 3.1976 148.165 2.93752C148.243 2.80181 148.356 2.79197 148.481 2.90546C148.729 3.12967 148.918 3.62406 149.342 3.16123C149.397 3.27279 149.435 3.40704 149.516 3.48741C149.596 3.56778 149.723 3.59425 149.829 3.64624C149.848 3.51409 149.877 3.38461 149.883 3.25262C149.885 3.2133 149.815 3.17489 149.792 3.12748C149.776 3.09681 149.783 3.04901 149.782 3.00972C149.969 3.08876 150.155 3.16499 150.341 3.24403C150.272 3.26736 150.167 3.2715 150.144 3.3195C150.049 3.52558 149.867 3.79451 149.925 3.94533C150.008 4.1632 149.852 4.42619 150.06 4.59197C150.07 4.60306 150.06 4.64809 150.061 4.67615ZM92.4017 3.53762C92.3785 3.53791 92.3553 3.53821 92.3322 3.5385C92.3482 3.5832 92.3565 3.63081 92.3801 3.667C92.388 3.67813 92.4417 3.64938 92.475 3.63773C92.4514 3.60435 92.4252 3.571 92.1894 3.44207C92.213 3.47545 92.2391 3.50599 92.2653 3.53934C92.2881 3.5138 92.3109 3.48825 92.3338 3.4627C92.3026 3.43783 92.2739 3.40732 92.2402 3.3881C92.2299 3.38543 92.2046 3.42223 92.4017 3.53762ZM107.007 2.16604C106.984 2.16633 106.961 2.16662 106.938 2.16691C106.954 2.21162 106.962 2.25922 106.986 2.29541C106.994 2.30654 107.047 2.2778 107.081 2.26615C107.057 2.23277 107.031 2.19942 106.795 2.07048C106.819 2.10387 106.845 2.13441 106.871 2.16776C106.894 2.14221 106.917 2.11666 106.939 2.09111C106.908 2.06625 106.879 2.03574 106.846 2.01652C106.835 2.01384 106.81 2.05065 107.007 2.16604ZM148.025 3.68304C147.986 3.62741 147.946 3.57177 147.905 3.51617C147.841 3.5731 147.777 3.63004 147.778 3.88824C147.705 3.78251 147.665 3.6904 147.642 3.6963C147.56 3.71418 147.483 3.76566 147.404 3.80315C147.448 3.87837 147.481 3.99022 147.545 4.01467C147.592 4.03373 147.678 3.94563 147.714 3.68417C147.817 3.68287 147.922 3.68154 148.095 3.67936C148.071 3.68246 148.048 3.68275 148.025 3.68304C148.041 3.72775 148.049 3.77535 148.073 3.81154C148.081 3.82267 148.135 3.79392 148.168 3.78228C148.144 3.7489 148.118 3.71555 148.025 3.68304ZM136.191 2.72101C136.19 2.69576 136.19 2.6705 136.19 2.64525C136.149 2.6626 136.105 2.67157 136.072 2.69725C136.062 2.7058 136.088 2.7644 136.099 2.80076C136.129 2.77511 136.16 2.74666 136.395 2.23007C136.315 2.363 136.249 2.46487 136.191 2.56945C136.186 2.57793 136.236 2.63905 136.262 2.64153C136.385 2.654 136.511 2.65241 136.496 2.45614C136.493 2.41127 136.459 2.3696 136.191 2.72101ZM115.029 2.48015C115.029 2.45489 115.029 2.42964 115.028 2.40438C114.987 2.42174 114.944 2.43071 114.911 2.45639C114.9 2.46494 114.927 2.52354 114.938 2.55989C114.968 2.53425 114.999 2.5058 115.132 2.0326C115.094 2.13411 115.057 2.2272 115.03 2.32858C115.025 2.34548 115.074 2.37854 115.1 2.40628C115.171 2.31277 115.245 2.21922 115.316 2.12851C115.277 2.10374 115.235 2.08462 115.029 2.48015ZM60.7767 3.07241C60.7374 3.01396 60.7033 2.96668 60.6719 2.92217C60.6441 2.96182 60.5931 3.00175 60.5962 3.04101C60.5996 3.11113 60.6365 3.17802 60.658 3.24792C60.6934 3.19695 60.7287 3.14599 61.3166 2.60811C61.1886 2.66867 61.1042 2.71183 61.0146 2.74664C60.9249 2.78145 60.8326 2.80788 60.7429 2.83708C60.8462 2.86384 60.9494 2.8878 61.0502 2.9174C61.0967 2.93084 61.1586 2.93848 61.1796 2.9719C61.2296 3.05827 61.2565 3.15616 61.2938 3.25112C61.3641 3.11551 61.4706 2.98506 61.4894 2.84169C61.4987 2.76579 61.3584 2.66371 60.7767 3.07241ZM128.705 2.28786C128.748 2.26205 128.789 2.23628 128.833 2.21047C128.801 2.16035 128.761 2.06262 128.741 2.06569C128.387 2.14594 127.974 2.67038 127.953 3.06076C127.951 3.1113 127.977 3.16149 127.991 3.21184C128.045 3.18029 128.119 3.16251 128.149 3.11161C128.215 3.00413 128.247 2.86901 128.317 2.76708C128.365 2.69631 128.458 2.66146 128.529 2.61285C128.556 2.71635 128.795 2.71894 128.646 2.91449C128.626 2.94281 128.658 3.02099 128.666 3.07421C128.733 3.04811 128.856 3.02971 128.861 2.99597C128.872 2.86673 128.857 2.72939 128.827 2.60066C128.806 2.49709 128.748 2.39398 128.705 2.28786ZM135.832 2.84623C135.668 2.75567 135.575 2.65582 135.492 2.66808C135.382 2.6807 135.264 2.76077 135.178 2.84606C135.102 2.92 135.013 3.0418 135.014 3.14282C135.016 3.2691 135.363 3.41909 135.467 3.32796C135.592 3.21973 135.677 3.05587 135.832 2.84623ZM101.072 2.41778C100.766 2.39639 100.615 2.51616 100.577 2.75521C100.57 2.7974 100.69 2.90535 100.759 2.91569C100.989 2.95209 101.139 2.82109 101.177 2.57924C101.187 2.52298 101.088 2.44284 101.072 2.41778ZM142.904 3.55965C142.864 3.49559 142.827 3.41186 142.812 3.41486C142.586 3.48507 142.363 3.56086 142.143 3.64784C142.12 3.65655 142.103 3.7606 142.122 3.79125C142.156 3.84695 142.237 3.92732 142.27 3.91567C142.447 3.84047 142.597 3.68141 142.816 3.73757C142.829 3.74583 142.876 3.61613 142.904 3.55965ZM87.176 2.07678C86.9197 2.16141 86.787 2.45778 86.9085 2.70042C86.9322 2.74503 87.0946 2.76543 87.0996 2.75414C87.1768 2.55109 87.2411 2.33978 87.3002 2.12854C87.3027 2.1257 87.22 2.09587 87.176 2.07678ZM144.328 3.39573C144.258 3.3966 144.212 3.39438 144.212 3.39719C144.194 3.6023 144.181 3.80735 144.166 4.01523C144.22 3.99491 144.304 3.99103 144.319 3.95155C144.374 3.81052 144.416 3.66124 144.437 3.51222C144.442 3.47287 144.349 3.41792 144.328 3.39573ZM141.87 3.2359C141.749 3.40022 141.635 3.55602 141.521 3.71182C141.565 3.72811 141.606 3.75846 141.653 3.76348C141.926 3.79091 142.015 3.68314 141.955 3.39201C141.944 3.34443 141.907 3.3056 141.87 3.2359ZM111.448 2.61798C111.499 2.61733 111.554 2.63068 111.597 2.61329C111.656 2.58728 111.72 2.54719 111.758 2.49338C111.778 2.46225 111.749 2.39246 111.743 2.3392C111.689 2.35672 111.638 2.37702 111.581 2.38615C111.463 2.41009 111.343 2.42284 111.227 2.45517C111.201 2.46111 111.182 2.52311 111.169 2.56256C111.167 2.57381 111.201 2.61548 111.221 2.61522C111.296 2.62551 111.373 2.61892 111.448 2.61798ZM147.039 3.62533C146.984 3.76355 146.938 3.82026 146.941 3.87635C146.951 3.99692 146.87 4.17194 147.061 4.2004C147.121 4.20808 147.189 4.14827 147.251 4.11662C147.192 3.97703 147.134 3.84024 147.039 3.62533ZM134.798 3.70127C134.864 3.67237 134.9 3.6663 134.902 3.65224C134.91 3.61566 134.919 3.5594 134.901 3.53999C134.833 3.46787 134.758 3.39866 134.675 3.34638C134.644 3.32713 134.585 3.36155 134.539 3.37055C134.557 3.42645 134.561 3.49938 134.597 3.53821C134.663 3.61036 134.743 3.65986 134.798 3.70127ZM134.454 2.58015C134.386 2.71572 134.318 2.80359 134.334 2.83427C134.373 2.90674 134.456 2.95341 134.519 3.00875C134.556 2.95214 134.638 2.88375 134.627 2.84179C134.608 2.76064 134.538 2.69978 134.454 2.58015ZM116.603 1.92983C116.56 1.82652 116.544 1.77901 116.523 1.73437C116.52 1.72599 116.479 1.72651 116.474 1.7378C116.403 1.83973 116.333 1.94166 116.275 2.05466C116.262 2.08288 116.304 2.1441 116.325 2.18874C116.328 2.19712 116.367 2.19663 116.374 2.18531C116.458 2.09725 116.537 2.00364 116.603 1.92983ZM126.188 1.6657C126.133 1.80672 126.077 1.88601 126.078 1.96739C126.079 2.00948 126.203 2.10052 126.219 2.08911C126.282 2.03778 126.343 1.96404 126.37 1.8823C126.38 1.85131 126.289 1.78229 126.188 1.6657ZM138.305 3.60929C138.18 3.53508 138.1 3.46032 138.071 3.47751C138.005 3.52045 137.962 3.6108 137.912 3.6788C137.964 3.72024 138.027 3.80926 138.065 3.79755C138.14 3.77977 138.195 3.70329 138.305 3.60929ZM116.355 2.88441C116.284 2.98634 116.218 3.0826 116.153 3.17885C116.197 3.19794 116.259 3.24487 116.277 3.23061C116.338 3.17651 116.394 3.10564 116.431 3.02939C116.444 3.00678 116.389 2.94572 116.355 2.88441ZM119.675 2.44396C119.715 2.55572 119.731 2.60323 119.747 2.65074C119.834 2.57667 119.92 2.50261 120.009 2.4257C119.97 2.39813 119.926 2.34256 119.892 2.34859C119.815 2.3636 119.744 2.41221 119.675 2.44396ZM62.1137 3.15376C62.0405 3.06768 61.9726 2.98714 61.9072 2.90938C61.8824 2.97986 61.822 3.09008 61.8429 3.11227C61.8977 3.17613 61.9882 3.20306 62.0684 3.23853C62.0736 3.24127 62.1061 3.16789 62.1137 3.15376ZM149.172 3.8117C149.072 3.85787 149.029 3.87806 148.988 3.89823C149.061 3.98992 149.132 4.07884 149.205 4.17053C149.228 4.12534 149.278 4.07699 149.27 4.04061C149.251 3.95945 149.207 3.88704 149.172 3.8117ZM97.4861 3.19558C97.4436 3.08666 97.425 3.03918 97.4064 2.99451C97.3224 3.07415 97.241 3.15096 97.1571 3.23061C97.196 3.25537 97.2431 3.31091 97.2764 3.30207C97.3508 3.28149 97.4171 3.23294 97.4861 3.19558ZM58.2568 3.88727C58.3504 3.96467 58.4388 4.03653 58.5273 4.10839C58.5447 4.06045 58.5876 3.99255 58.5745 3.97307C58.5247 3.90634 58.4596 3.84542 58.3896 3.8042C58.3662 3.79046 58.3129 3.85007 58.2568 3.88727ZM104.571 2.04804C104.631 2.095 104.693 2.15596 104.763 2.18875C104.791 2.20243 104.845 2.15404 104.888 2.13384C104.815 2.04215 104.745 1.95323 104.671 1.86153C104.649 1.90673 104.624 1.94914 104.571 2.04804ZM79.282 2.52165C79.2703 2.61442 79.2532 2.69041 79.2593 2.76331C79.2622 2.78572 79.3242 2.80459 79.3579 2.82661C79.375 2.75343 79.3998 2.68014 79.404 2.60431C79.4038 2.58466 79.3391 2.56022 79.282 2.52165ZM96.9583 2.97771C96.9022 3.01771 96.8381 3.04378 96.841 3.06339C96.8471 3.13909 96.8737 3.21173 96.8927 3.28446C96.9258 3.26159 96.9874 3.24397 96.9896 3.21869C96.9913 3.14569 96.9723 3.07015 96.9583 2.97771ZM115.339 1.75774C115.376 1.81902 115.4 1.88888 115.418 1.88585C115.488 1.87936 115.554 1.85045 115.621 1.82996C115.6 1.79374 115.581 1.72662 115.56 1.72407C115.491 1.72215 115.421 1.74267 115.339 1.75774ZM118.311 3.07583C118.348 3.13711 118.372 3.20697 118.39 3.20394C118.459 3.19745 118.526 3.16854 118.592 3.14805C118.571 3.11183 118.555 3.04468 118.532 3.04217C118.465 3.0402 118.396 3.06073 118.311 3.07583ZM119.41 2.84585C119.359 2.87456 119.297 2.91182 119.236 2.94627C119.275 2.97385 119.319 3.02942 119.355 3.02335C119.422 3.01409 119.483 2.97122 119.547 2.94234C119.508 2.91196 119.469 2.88439 119.41 2.84585ZM122.324 2.72205C122.387 2.76616 122.429 2.81896 122.465 2.8157C122.531 2.80644 122.593 2.76357 122.657 2.73469C122.618 2.70712 122.576 2.65432 122.537 2.65761C122.47 2.65846 122.406 2.69294 122.324 2.72205ZM125.061 2.58084C124.944 2.63565 124.9 2.65585 124.859 2.67601C124.903 2.71194 124.945 2.76754 124.994 2.78096C125.031 2.79173 125.079 2.74621 125.12 2.72605C125.096 2.66741 125.072 2.60877 125.061 2.58084ZM125.268 2.86731C125.292 2.87825 125.349 2.9084 125.405 2.91891C125.416 2.92158 125.461 2.82559 125.45 2.78643C125.437 2.73328 125.387 2.689 125.35 2.64175C125.336 2.68684 125.318 2.73477 125.268 2.86731ZM131.402 2.8825C131.391 2.97526 131.374 3.05126 131.38 3.12415C131.38 3.1466 131.445 3.16543 131.478 3.18746C131.495 3.11427 131.52 3.04099 131.524 2.96516C131.522 2.94554 131.46 2.92107 131.402 2.8825ZM110.982 1.81274C111.019 1.87402 111.043 1.94388 111.061 1.94085C111.13 1.93436 111.197 1.90545 111.264 1.88497C111.243 1.84875 111.226 1.78159 111.203 1.77908C111.136 1.77712 111.067 1.79764 110.982 1.81274ZM144.984 3.34816C144.866 3.40297 144.822 3.42316 144.781 3.44333C144.826 3.47925 144.868 3.53486 144.917 3.54827C144.953 3.55904 145.001 3.51353 145.042 3.49336C145.018 3.43473 144.994 3.37609 144.984 3.34816ZM146.592 3.53835C146.536 3.57835 146.472 3.60442 146.475 3.62403C146.481 3.69973 146.508 3.77236 146.527 3.8451C146.56 3.82223 146.621 3.80461 146.623 3.77932C146.625 3.70633 146.606 3.63079 146.592 3.53835ZM54.1259 2.494C54.1082 2.51387 54.075 2.53674 54.0777 2.55074C54.0859 2.58993 54.1096 2.62612 54.1281 2.66518C54.1459 2.64531 54.179 2.62243 54.1763 2.60844C54.1681 2.56925 54.1444 2.53306 54.1259 2.494ZM56.1452 4.02058C56.1249 4.04329 56.1071 4.06316 56.0894 4.08303C56.1231 4.10225 56.1568 4.12708 56.1955 4.13501C56.2084 4.13766 56.2286 4.10092 56.2463 4.08105C56.2126 4.05902 56.1789 4.0398 56.1452 4.02058ZM136.487 3.38244C136.466 3.36025 136.448 3.34083 136.432 3.32139C136.415 3.35809 136.392 3.39487 136.385 3.43706C136.383 3.45112 136.416 3.47315 136.435 3.49256C136.452 3.45305 136.47 3.41634 136.487 3.38244ZM98.7144 2.21178C98.7353 2.23397 98.7535 2.25339 98.7718 2.27281C98.7893 2.2361 98.812 2.19933 98.8192 2.15714C98.8216 2.14307 98.7879 2.12104 98.7696 2.10163C98.7521 2.13834 98.7319 2.17508 98.7144 2.21178ZM97.0988 3.50359C97.0656 3.52365 97.0324 3.54372 96.9992 3.56659C97.0175 3.586 97.0385 3.62222 97.0513 3.61926C97.0873 3.61038 97.1204 3.5847 97.1562 3.56461C97.1353 3.54522 97.1197 3.52577 97.0988 3.50359ZM129.397 2.41666C129.376 2.43937 129.358 2.45924 129.343 2.47908C129.377 2.4983 129.411 2.52313 129.449 2.53106C129.462 2.5337 129.482 2.49696 129.5 2.47709C129.464 2.4551 129.43 2.43588 129.397 2.41666ZM130.379 2.74386C130.346 2.76393 130.312 2.78399 130.279 2.80406C130.297 2.82347 130.318 2.85969 130.331 2.85673C130.367 2.84785 130.4 2.82217 130.436 2.80208C130.418 2.78547 130.4 2.76605 130.379 2.74386ZM145.595 3.85967C145.628 3.8396 145.661 3.81953 145.694 3.79666C145.676 3.77725 145.655 3.74103 145.642 3.74399C145.606 3.75287 145.573 3.77855 145.538 3.79864C145.556 3.81806 145.574 3.83748 145.595 3.85967ZM127.119 3.29301C127.086 3.31307 127.053 3.33314 127.02 3.35321C127.038 3.37262 127.059 3.40884 127.072 3.40587C127.108 3.397 127.141 3.37132 127.177 3.35122C127.158 3.33461 127.14 3.3152 127.119 3.29301ZM115.442 2.59281C115.409 2.61288 115.376 2.63294 115.343 2.65581C115.361 2.67523 115.382 2.71145 115.395 2.70848C115.431 2.69961 115.464 2.67393 115.5 2.65383C115.482 2.63442 115.463 2.615 115.442 2.59281ZM132.442 3.2623C132.421 3.24011 132.403 3.2207 132.387 3.20125C132.37 3.23796 132.347 3.27473 132.34 3.31692C132.337 3.33098 132.371 3.35301 132.389 3.37243C132.407 3.33572 132.424 3.29901 132.442 3.2623ZM111.99 1.93473C111.972 1.9546 111.939 1.97748 111.942 1.99148C111.95 2.03066 111.974 2.06685 111.992 2.10591C112.01 2.08604 112.043 2.06317 112.041 2.04917C112.032 2.00718 112.009 1.97099 111.99 1.93473ZM110.631 3.33276C110.598 3.35283 110.564 3.37289 110.531 3.39576C110.549 3.41518 110.57 3.4514 110.583 3.44843C110.619 3.43956 110.652 3.41388 110.688 3.39378C110.67 3.37437 110.652 3.35495 110.631 3.33276ZM63.1038 3.29001C63.1223 3.32627 63.1408 3.36252 63.1592 3.39877C63.177 3.3789 63.2102 3.35603 63.2074 3.34203C63.1992 3.30284 63.1756 3.26665 63.1571 3.2276C63.1419 3.24743 63.1241 3.2673 63.1038 3.29001ZM59.5186 2.70659C59.5394 2.72878 59.5577 2.74819 59.576 2.76761C59.5935 2.7309 59.6162 2.69413 59.6234 2.65194C59.6258 2.63787 59.5921 2.61585 59.5738 2.59643C59.5537 2.63317 59.5361 2.66988 59.5186 2.70659ZM57.3264 3.38821C57.3447 3.40762 57.3657 3.44384 57.3785 3.44087C57.4145 3.432 57.4476 3.40632 57.4834 3.38623C57.4651 3.36681 57.4441 3.33059 57.4312 3.33356C57.3953 3.34243 57.3622 3.36811 57.3264 3.38821ZM152.689 3.45577C152.75 3.84511 152.774 3.8813 152.988 3.7074C153.279 3.47078 153.592 3.4163 153.932 3.44008C153.951 3.48755 153.967 3.53226 153.985 3.57974C154.021 3.53158 154.054 3.48625 154.089 3.43809C154.184 3.41725 154.284 3.40756 154.376 3.37272C154.566 3.30297 154.662 3.3635 154.662 3.56839C154.663 3.62732 154.635 3.68941 154.618 3.74857C154.703 3.71943 154.8 3.71258 154.864 3.65565C154.91 3.61578 154.911 3.51192 154.933 3.43866C154.965 3.50282 154.986 3.57271 155.028 3.62551C155.06 3.6644 155.117 3.70859 155.155 3.70249C155.245 3.68452 155.38 3.57616 155.412 3.60944C155.615 3.81176 155.785 3.82084 156.012 3.63274C156.114 3.55006 156.307 3.57007 156.454 3.58787C156.657 3.61336 156.512 3.6994 156.479 3.78962C156.45 3.86858 156.484 3.9776 156.493 4.07572C156.581 4.04655 156.696 4.04229 156.752 3.97984C157.092 3.60787 157.161 3.54806 157.36 3.57362C157.406 3.57865 157.448 3.61181 157.492 3.6309C157.469 3.67048 157.454 3.71838 157.424 3.74963C157.258 3.92012 157.088 4.08505 156.923 4.25554C156.76 4.42318 156.6 4.59921 156.438 4.76966C156.375 4.71432 156.315 4.61685 156.248 4.60927C156.052 4.58929 155.854 4.60583 155.656 4.60833C155.688 4.50408 155.72 4.39983 155.755 4.29554C155.652 4.33613 155.542 4.35997 155.45 4.42007C155.399 4.4544 155.38 4.54726 155.347 4.61223C155.321 4.61255 155.275 4.60752 155.272 4.61317C155.233 4.76522 155.239 5.01494 155.157 5.05246C154.983 5.13605 154.764 5.11917 154.563 5.12731C154.468 5.13132 154.372 5.08763 154.277 5.06638C154.382 5.03137 154.49 4.99353 154.595 4.96133C154.618 4.95262 154.649 4.96626 154.672 4.95755C154.741 4.93422 154.808 4.90531 154.874 4.87921C154.804 4.80152 154.735 4.65363 154.665 4.65451C154.326 4.65038 153.95 4.46708 153.669 4.84671C153.636 4.88923 153.552 4.92959 153.51 4.91327C153.078 4.74752 153.065 4.72523 152.765 5.01529C152.521 5.25133 152.55 5.05731 152.55 4.8861C152.551 4.5521 152.442 4.66294 152.32 4.81322C152.191 4.97203 152.097 5.05742 151.881 4.88332C151.701 4.73684 151.426 4.72909 151.193 4.66186C151.074 4.62968 150.918 4.6485 150.845 4.57083C150.751 4.46817 150.702 4.29477 150.68 4.1435C150.649 3.93059 150.654 3.73686 150.525 3.52799C150.389 3.3108 150.531 3.14622 150.806 3.13713C150.935 3.1327 151.066 3.12543 151.194 3.13222C151.318 3.13908 151.442 3.15997 151.563 3.17809C151.507 3.43139 151.311 3.22617 151.207 3.30608C151.123 3.37169 151.06 3.46511 150.989 3.54459C151.132 3.66628 151.131 3.78698 150.985 3.90388C151.084 3.98683 151.178 4.07827 151.287 4.13864C151.308 4.1496 151.419 4.0219 151.441 3.94022C151.498 3.72901 151.646 3.83099 151.79 3.80391C151.8 3.80378 151.78 3.80404 151.756 3.80434C151.772 3.84904 151.781 3.89665 151.804 3.93284C151.812 3.94396 151.866 3.91522 151.899 3.90357C151.876 3.87019 151.849 3.83684 151.792 3.80388C151.731 3.62503 151.765 3.46743 151.918 3.37568C151.951 3.35562 152.032 3.37426 152.06 3.40477C152.303 3.65991 152.3 3.66275 152.689 3.45577ZM153.377 4.14874C153.357 4.17145 153.339 4.19132 153.324 4.20835C153.358 4.22757 153.391 4.2524 153.43 4.26034C153.443 4.26298 153.463 4.22624 153.481 4.20637C153.442 4.19002 153.408 4.16799 153.377 4.14874ZM161.254 4.19524C161.585 4.30614 161.306 4.64365 161.45 4.81304C161.528 4.90748 161.646 5.02107 161.749 5.02819C162.132 5.0486 162.553 5.1303 162.891 4.98851C163.16 4.87846 163.324 4.80342 163.55 5.00825C163.579 5.03315 163.678 4.96453 163.745 4.93843C163.489 4.661 163.809 4.5054 163.858 4.29429C163.865 4.26052 163.841 4.21591 163.833 4.17672C163.628 4.27193 163.506 3.78511 163.238 4.10285C163.123 4.2362 162.772 4.33887 162.689 4.25853C162.41 3.99261 162.298 4.48519 162.083 4.35599C162.02 4.32029 161.889 4.29669 161.891 4.27702C161.913 3.93995 161.692 4.03254 161.458 4.01866C161.417 4.05286 161.336 4.12405 161.254 4.19524ZM155.848 4.76588C155.781 4.7583 155.723 4.6608 155.658 4.60549C155.555 4.60679 155.45 4.60812 155.347 4.60942C155.368 5.0498 155.368 5.04699 155.717 4.97242C155.784 4.95754 155.881 4.93666 155.92 4.97546C156.189 5.23309 156.501 5.05234 156.789 5.09641C156.826 5.10156 156.869 5.04489 156.909 5.0163C156.87 4.98873 156.834 4.9499 156.79 4.93361C156.668 4.89024 156.47 5.04431 156.44 4.76682C156.242 4.76652 156.044 4.78305 155.848 4.76588ZM158.662 4.55635C158.733 4.51335 158.749 4.32791 158.758 4.20712C158.762 4.16215 158.669 4.11 158.622 4.06008C158.566 4.12814 158.5 4.19072 158.457 4.26704C158.354 4.45077 158.272 4.67073 158.034 4.41271C158.026 4.40158 157.904 4.51539 157.838 4.56955C157.888 4.6419 157.938 4.71143 158.006 4.80881C158.257 4.71863 158.475 4.66816 158.662 4.55635ZM169.888 4.26026C169.773 4.31223 169.555 4.13256 169.553 4.37676C169.553 4.44973 169.841 4.59765 169.977 4.57629C170.154 4.54598 170.307 4.36444 170.521 4.40945C170.534 4.41209 170.574 4.36106 170.572 4.35548C170.553 4.31642 170.524 4.25504 170.496 4.2554C170.344 4.2489 170.192 4.25362 170.04 4.25554C169.989 4.25619 169.932 4.24007 169.888 4.26026ZM157.823 4.97952C157.75 4.90185 157.663 4.75139 157.612 4.76607C157.481 4.7986 157.369 4.90666 157.246 4.98399C157.337 5.03056 157.428 5.07712 157.529 5.13198C157.636 5.07449 157.728 5.02562 157.823 4.97952ZM169.039 4.26256C169.117 4.37384 169.211 4.47088 169.3 4.57361C169.318 4.52568 169.358 4.46342 169.345 4.43552C169.279 4.31567 169.195 4.21007 169.103 4.0737C169.066 4.17241 169.023 4.24312 169.039 4.26256ZM173.057 4.50373C173.017 4.55476 172.992 4.61682 172.962 4.67614C173.029 4.69213 173.135 4.74412 173.158 4.71576C173.211 4.65054 173.225 4.54651 173.312 4.29001C173.139 4.42972 173.09 4.4584 173.057 4.50373ZM161.182 4.19615C161.155 4.26386 161.107 4.33183 161.108 4.39917C161.109 4.49739 161.149 4.59512 161.17 4.69027C161.211 4.61118 161.248 4.53212 161.296 4.4417C161.251 4.34684 161.217 4.2715 161.182 4.19615ZM150.061 4.67615C150.129 4.77633 150.197 4.87651 150.265 4.97949C150.301 4.93975 150.372 4.88833 150.367 4.86033C150.348 4.78199 150.296 4.71248 150.274 4.67346C150.159 4.67492 150.11 4.67553 150.061 4.67615ZM164.683 4.19406C164.678 4.23061 164.73 4.27766 164.756 4.31943C164.825 4.22314 164.89 4.12689 164.959 4.03341C164.915 4.01712 164.873 3.998 164.767 3.95724C164.737 4.0334 164.697 4.10968 164.683 4.19406ZM171.526 4.48377C171.562 4.51418 171.599 4.56985 171.635 4.56659C171.699 4.56297 171.76 4.52291 171.824 4.49964C171.778 4.46094 171.731 4.42224 171.666 4.36973C171.612 4.41532 171.569 4.44954 171.526 4.48377ZM146.252 4.56144C146.232 4.56451 146.215 4.63209 146.195 4.66883C146.262 4.68762 146.329 4.71484 146.399 4.71958C146.417 4.71935 146.439 4.65171 146.474 4.58952C146.392 4.57372 146.322 4.55495 146.252 4.56144ZM145.143 2.70343C145.166 2.67788 145.188 2.65233 145.211 2.62678C145.18 2.60192 145.151 2.57141 145.118 2.55219C145.112 2.54944 145.087 2.58625 145.069 2.60612C145.093 2.6367 145.119 2.67004 145.143 2.70343ZM93.8609 1.48439C93.9131 1.53986 93.9653 1.59534 94.0175 1.65081C93.9653 1.59534 93.9131 1.53986 93.8609 1.48439ZM93.7914 1.48527C93.8143 1.45972 93.8371 1.43417 93.86 1.40862C93.8288 1.38376 93.8001 1.35325 93.7664 1.33403C93.7612 1.33128 93.7359 1.36809 93.7181 1.38796C93.7417 1.41854 93.7653 1.45192 93.7914 1.48527ZM152.688 3.38C152.711 3.40496 152.735 3.42993 152.758 3.45489C152.781 3.42093 152.809 3.3897 152.827 3.35299C152.829 3.34735 152.795 3.31971 152.777 3.30029C152.749 3.3259 152.718 3.35155 152.688 3.38ZM154.089 3.43809C154.07 3.39062 154.054 3.34591 154.036 3.29844C154 3.3466 153.967 3.39192 153.932 3.44008C153.986 3.43939 154.037 3.43874 154.089 3.43809ZM82.6889 3.66023C82.7049 3.70494 82.7132 3.75255 82.7369 3.78873C82.7447 3.79986 82.7984 3.77112 82.8317 3.75947C82.8081 3.72609 82.782 3.69274 82.7584 3.65936C82.7327 3.65968 82.7095 3.65997 82.6889 3.66023ZM157.755 4.07103C157.772 4.05115 157.806 4.02828 157.803 4.01428C157.795 3.9751 157.771 3.93891 157.752 3.89985C157.735 3.91972 157.719 3.93675 157.697 3.9623C157.715 3.99575 157.734 4.0348 157.755 4.07103ZM58.5495 1.59055C58.506 1.61075 58.4651 1.62811 58.4216 1.6483C58.4658 1.68704 58.5074 1.723 58.5517 1.76173C58.5509 1.7028 58.5502 1.64668 58.5495 1.59055ZM168.567 4.18713C168.533 4.16791 168.499 4.14308 168.461 4.13514C168.448 4.1325 168.428 4.16924 168.41 4.18911C168.444 4.20833 168.477 4.22755 168.511 4.24677C168.534 4.22684 168.549 4.207 168.567 4.18713ZM168.719 4.01681C168.753 4.03603 168.787 4.06086 168.825 4.0688C168.838 4.07144 168.858 4.0347 168.876 4.01483C168.842 3.99561 168.809 3.97639 168.775 3.95716C168.755 3.97707 168.737 3.99694 168.719 4.01681ZM58.2349 1.33912C58.2686 1.35834 58.3024 1.38318 58.3411 1.39111C58.354 1.39375 58.3741 1.35701 58.3919 1.33714C58.3582 1.31792 58.3245 1.2987 58.2908 1.27948C58.2679 1.30222 58.2527 1.32206 58.2349 1.33912ZM171.057 4.24271C171.016 4.26006 170.972 4.26903 170.939 4.29471C170.929 4.30326 170.955 4.36186 170.966 4.39821C170.997 4.37257 171.027 4.34412 171.058 4.31847C171.057 4.29322 171.057 4.26796 171.057 4.24271ZM171.056 4.16694C171.079 4.1919 171.103 4.21686 171.126 4.24183C171.149 4.20786 171.177 4.17664 171.194 4.13993C171.197 4.13428 171.163 4.10664 171.145 4.08723C171.114 4.11287 171.086 4.13849 171.056 4.16694ZM171.455 4.40607C171.478 4.38053 171.501 4.35498 171.524 4.32943C171.492 4.30456 171.464 4.27405 171.43 4.25483C171.425 4.25209 171.4 4.2889 171.382 4.30877C171.405 4.34215 171.432 4.37269 171.455 4.40607ZM177.594 4.58398C177.612 4.6034 177.633 4.63962 177.646 4.63665C177.682 4.62778 177.715 4.6021 177.751 4.582C177.732 4.56259 177.717 4.54594 177.693 4.52098C177.663 4.54101 177.627 4.56111 177.594 4.58398Z" fill="url(#paint0_linear)"/>
<defs>
<linearGradient id="paint0_linear" x1="9.77233" y1="7.16341" x2="163.154" y2="3.92471" gradientUnits="userSpaceOnUse">
<stop stop-color="#4C503D"/>
<stop offset="0.0001" stop-color="#4C503D"/>
<stop offset="1" stop-color="#738136"/>
</linearGradient>
</defs>
</svg>
