<svg width="28" height="28" viewBox="0 0 28 28" fill="none" xmlns="http://www.w3.org/2000/svg">
<g clip-path="url(#clip0_3375_4017)">
<path d="M13.131 27.997C9.08133 27.997 5.03166 27.997 0.982 27.997C0.811552 27.997 0.63806 28.0076 0.469134 27.9879C0.192156 27.9545 -0.0102513 27.7937 0.000401678 27.5101C0.0110547 27.2265 0.21194 27.0839 0.504137 27.0854C0.864817 27.087 1.23006 27.0521 1.58618 27.0915C2.061 27.1461 2.14166 26.9414 2.14013 26.5167C2.12491 23.1255 2.14166 19.7342 2.12035 16.343C2.11731 15.844 2.22231 15.6847 2.75649 15.6878C3.64982 15.6923 4.41988 15.3132 4.99057 14.6125C5.18385 14.3743 5.26907 14.3683 5.48974 14.6003C6.90507 16.0957 8.81196 16.0836 10.2212 14.5715C10.4419 14.3349 10.5104 14.4183 10.6823 14.5973C12.1129 16.0882 14.0121 16.0897 15.4183 14.5776C15.6786 14.2985 15.7516 14.4562 15.9145 14.6276C17.0209 15.7909 18.5214 16.0305 19.7922 15.2646C20.0813 15.0902 20.3111 14.8718 20.1224 14.5366C19.9215 14.1787 19.6187 14.3288 19.3326 14.4805C17.7711 15.3071 16.1793 14.3561 16.1549 12.5862C16.1427 11.6155 16.1427 11.6171 17.0924 11.6155C17.3389 11.6155 17.5885 11.6292 17.8335 11.6049C18.1166 11.5776 18.2962 11.4032 18.2733 11.1135C18.252 10.8557 18.0816 10.7131 17.8092 10.7131C17.3724 10.7131 16.9341 10.7025 16.4973 10.7131C16.2371 10.7192 16.0864 10.6707 16.0438 10.3582C15.8505 8.97049 15.6314 7.5873 15.4107 6.20411C15.3696 5.94476 15.4549 5.85073 15.7029 5.86893C15.7212 5.87045 15.741 5.86893 15.7592 5.86893C17.1959 5.78551 17.1822 5.79006 17.6829 7.1232C18.8258 10.1656 20.407 12.9927 22.0232 15.8C22.3474 16.3627 22.8709 16.6979 23.5359 16.6342C24.0047 16.5887 24.0153 16.8025 24.0138 17.1513C24.0062 20.259 24.026 23.3666 23.994 26.4727C23.9879 27.0551 24.1447 27.2523 24.7215 27.1855C25.1141 27.14 25.5189 27.178 25.9176 27.1916C26.1246 27.1992 26.2966 27.2932 26.3133 27.5207C26.3316 27.7634 26.1824 27.9211 25.9602 27.9697C25.7776 28.0091 25.5828 27.9985 25.3926 27.9985C21.3064 27.997 17.2187 27.997 13.131 27.997ZM7.97341 18.3829C7.17444 18.3829 6.37546 18.3723 5.57649 18.3859C4.57054 18.4041 4.01963 18.944 4.00441 19.939C3.98767 21.0006 3.98767 22.0623 4.00441 23.1239C4.01963 24.0931 4.56445 24.6542 5.52931 24.6664C7.16531 24.6861 8.8013 24.6876 10.4358 24.6664C11.3945 24.6542 11.9394 24.0749 11.9455 23.1164C11.9531 22.0744 11.9515 21.031 11.9455 19.989C11.9409 18.9607 11.3991 18.4056 10.3688 18.3874C9.57136 18.3707 8.77239 18.3829 7.97341 18.3829ZM21.3049 23.2316C21.3049 22.1336 21.3079 21.034 21.3049 19.9359C21.3018 18.7514 20.7144 18.1645 19.5121 18.1569C18.2383 18.1493 16.9645 18.1796 15.6908 18.1478C14.4291 18.1159 13.7169 18.7044 13.6865 20.1907C13.6423 22.3489 13.6789 24.5102 13.6712 26.6699C13.6697 26.999 13.656 27.2326 14.1263 27.2326C14.5722 27.231 14.6574 27.0839 14.6544 26.6775C14.6361 24.4419 14.6437 22.2064 14.6483 19.9708C14.6498 19.2428 14.8263 19.0684 15.5614 19.0638C16.8154 19.0578 18.0709 19.0593 19.3249 19.0623C20.1909 19.0638 20.3537 19.2276 20.3552 20.0967C20.3583 22.3125 20.3644 24.5299 20.3492 26.7457C20.3461 27.1173 20.4557 27.2295 20.8301 27.2265C21.1907 27.2235 21.3216 27.1431 21.314 26.7578C21.2897 25.5824 21.3049 24.407 21.3049 23.2316ZM17.5383 23.1543C18.0512 23.1543 18.564 23.1482 19.0769 23.1558C19.4939 23.1619 19.7176 22.9965 19.71 22.5537C19.6993 21.9106 19.7024 21.2676 19.7085 20.623C19.7115 20.2241 19.5319 20.0315 19.1241 20.033C18.0603 20.0391 16.9965 20.0406 15.9342 20.0315C15.531 20.0284 15.3346 20.1983 15.3362 20.6048C15.3407 21.2675 15.3422 21.9288 15.3362 22.5916C15.3331 23.0072 15.5492 23.1619 15.9434 23.1543C16.4745 23.1467 17.0072 23.1543 17.5383 23.1543ZM16.1869 25.0076C16.1762 24.6467 16.2386 24.36 15.9556 24.1917C15.8171 24.1098 15.6603 24.1113 15.5188 24.1856C15.2205 24.3418 15.2799 24.6269 15.2753 24.8878C15.2692 25.226 15.289 25.59 15.7273 25.5991C16.1732 25.6082 16.1975 25.2488 16.1869 25.0076Z" fill="white"/>
<path d="M27.9991 4.32128C28.0172 5.17465 27.8152 5.82484 27.589 6.46233C26.695 8.97928 25.4671 11.3235 24.1643 13.6258C23.8957 14.1008 23.3986 14.13 23.1506 13.6766C21.8005 11.2029 20.4916 8.71133 19.5662 6.01533C18.5041 2.92439 20.9114 -0.119564 23.8353 0.00361646C26.0926 0.0963193 27.9785 2.10276 27.9991 4.32128ZM23.6526 8.03193C25.4805 8.03066 26.9769 6.45472 26.9575 4.5524C26.9382 2.65136 25.4671 1.1224 23.655 1.11986C21.8223 1.11732 20.3537 2.66787 20.361 4.59812C20.3682 6.49916 21.8392 8.0332 23.6526 8.03193Z" fill="white"/>
<path d="M13.1653 10.7086C12.6144 10.7086 12.0619 10.695 11.5125 10.7147C11.196 10.7253 11.1092 10.5979 11.1549 10.3113C11.3771 8.92958 11.6023 7.5479 11.8123 6.16319C11.8504 5.9084 11.9828 5.86441 12.1974 5.86593C12.8426 5.872 13.4894 5.87503 14.1362 5.86441C14.3752 5.85986 14.4665 5.95541 14.5015 6.18594C14.7069 7.57065 14.92 8.95384 15.1406 10.337C15.1924 10.6646 15.0433 10.7207 14.7632 10.7132C14.2291 10.6995 13.6979 10.7086 13.1653 10.7086Z" fill="white"/>
<path d="M6.10352 10.7088C6.84009 9.11481 7.53102 7.62545 8.21585 6.13306C8.30717 5.93438 8.44413 5.86158 8.66176 5.86461C9.26898 5.87371 9.8762 5.87674 10.4834 5.86461C10.7756 5.85854 10.8837 5.92831 10.8319 6.25439C10.6143 7.61635 10.4225 8.98286 10.2293 10.3494C10.1943 10.5935 10.109 10.7164 9.83663 10.7149C8.62523 10.7027 7.41384 10.7088 6.10352 10.7088Z" fill="white"/>
<path d="M1.13672 10.7376C1.99657 9.61531 2.77576 8.59915 3.55343 7.58299C3.63409 7.47834 3.71627 7.37369 3.79693 7.26904C4.95049 5.76603 4.95049 5.77362 6.87108 5.86007C7.19676 5.87523 7.26981 5.94348 7.12827 6.24833C6.47387 7.65124 5.82861 9.06021 5.1879 10.4692C5.09659 10.6679 4.9718 10.7422 4.75265 10.7407C3.59756 10.7331 2.44095 10.7376 1.13672 10.7376Z" fill="white"/>
<path d="M10.0821 12.3859C10.114 13.355 9.82336 14.1224 8.97721 14.5789C8.25128 14.9702 7.51623 14.9293 6.82074 14.4773C6.07655 13.992 5.58955 12.674 5.82392 11.8535C5.88175 11.6533 6.00959 11.6457 6.16634 11.6457C7.36252 11.6457 8.5587 11.629 9.75336 11.6533C10.3773 11.6639 9.94055 12.1872 10.0821 12.3859Z" fill="white"/>
<path d="M2.80357 11.6443C3.37426 11.6443 3.94496 11.6564 4.51566 11.6397C4.8109 11.6306 4.9296 11.7353 4.91438 12.031C4.89155 12.483 4.95547 12.9425 4.81546 13.3854C4.50805 14.3485 3.60102 14.9217 2.5555 14.8186C1.57847 14.7215 0.784061 13.9117 0.672965 12.9031C0.534476 11.6443 0.534476 11.6443 1.77631 11.6443C2.11873 11.6443 2.46115 11.6443 2.80357 11.6443Z" fill="white"/>
<path d="M13.133 11.6446C13.7022 11.6446 14.2729 11.6537 14.8421 11.64C15.1221 11.6339 15.2713 11.7037 15.2484 12.0177C15.2195 12.412 15.2758 12.8093 15.1784 13.2037C14.9258 14.232 14.0736 14.875 13.0083 14.825C12.0145 14.778 11.1425 13.9605 11.0192 12.961C10.8564 11.643 10.8564 11.643 12.1636 11.643C12.4878 11.6446 12.8104 11.6446 13.133 11.6446Z" fill="white"/>
<path d="M7.95346 19.3507C8.75091 19.3507 9.54837 19.3644 10.3443 19.3462C10.81 19.3356 11.0017 19.5434 11.0002 19.9893C10.9957 21.01 10.9941 22.0322 11.0017 23.0529C11.0048 23.5367 10.7795 23.7157 10.3002 23.7096C8.74482 23.6929 7.18796 23.6929 5.63263 23.7096C5.14867 23.7142 4.95083 23.5488 4.96453 23.0484C4.99192 22.0474 4.98888 21.0433 4.96605 20.0423C4.95388 19.5252 5.16694 19.3295 5.67676 19.3462C6.43464 19.3674 7.19405 19.3507 7.95346 19.3507Z" fill="white"/>
<path d="M17.5086 22.2111C17.3001 22.2111 17.0886 22.1853 16.8862 22.2157C16.3642 22.2945 16.2302 22.0867 16.2257 21.5756C16.2211 21.0494 16.3824 20.8886 16.8938 20.9341C17.3808 20.9766 17.8769 20.9659 18.3654 20.9356C18.7246 20.9144 18.8448 21.0448 18.8007 21.386C18.7809 21.5347 18.7824 21.6879 18.8007 21.8365C18.8372 22.1383 18.7078 22.2354 18.4156 22.2157C18.1143 22.1944 17.8115 22.2096 17.5086 22.2111Z" fill="white"/>
</g>
<defs>
<clipPath id="clip0_3375_4017">
<rect width="28" height="28" fill="white"/>
</clipPath>
</defs>
</svg>
