<svg width="24" height="24" viewBox="0 0 24 24" fill="none" xmlns="http://www.w3.org/2000/svg"><path d="M16.007 15.857c2.554-4.007 2.232-3.507 2.306-3.612a7.677 7.677 0 001.421-4.464C19.734 3.515 16.272 0 12 0 7.742 0 4.266 3.508 4.266 7.781c0 1.608.501 3.192 1.462 4.521l2.265 3.555c-2.422.372-6.54 1.482-6.54 3.924 0 .89.581 2.16 3.35 3.148C6.736 23.62 9.293 24 12 24c5.064 0 10.547-1.428 10.547-4.219 0-2.443-4.113-3.55-6.54-3.924zM6.902 11.53a6.309 6.309 0 01-1.23-3.747c0-3.517 2.831-6.376 6.328-6.376 3.49 0 6.328 2.86 6.328 6.375 0 1.312-.4 2.57-1.155 3.641-.068.09.286-.46-5.173 8.106l-5.098-8zM12 22.594c-5.531 0-9.14-1.626-9.14-2.813 0-.797 1.854-2.109 5.964-2.62l2.583 4.053a.703.703 0 001.186 0l2.583-4.053c4.11.511 5.965 1.823 5.965 2.62 0 1.177-3.577 2.813-9.141 2.813z" fill="#738136"/><path d="M12 4.266A3.52 3.52 0 008.484 7.78 3.52 3.52 0 0012 11.297a3.52 3.52 0 003.516-3.516A3.52 3.52 0 0012 4.266zm0 5.625a2.112 2.112 0 01-2.11-2.11c0-1.163.947-2.11 2.11-2.11 1.163 0 2.11.947 2.11 2.11 0 1.163-.947 2.11-2.11 2.11z" fill="#738136"/></svg>