<svg width="24" height="24" viewBox="0 0 24 24" fill="none" xmlns="http://www.w3.org/2000/svg"><g clip-path="url(#clip0)" fill="#DE8D1E"><path d="M18.968 14.867c-.492-.512-1.084-.785-1.712-.785-.624 0-1.221.268-1.733.78l-1.6 1.596c-.132-.071-.264-.137-.39-.203a6.446 6.446 0 01-.502-.268c-1.5-.953-2.862-2.194-4.169-3.8-.633-.8-1.059-1.473-1.367-2.157.415-.38.8-.775 1.175-1.155.142-.142.283-.289.425-.43 1.064-1.064 1.064-2.442 0-3.506L7.712 3.556c-.157-.157-.319-.319-.47-.481a23.915 23.915 0 00-.953-.942c-.491-.486-1.079-.745-1.697-.745-.618 0-1.216.259-1.722.745l-.01.01L1.137 3.88A3.706 3.706 0 00.038 6.236c-.121 1.479.314 2.857.649 3.758.82 2.214 2.046 4.265 3.875 6.464 2.218 2.649 4.888 4.74 7.937 6.215 1.165.552 2.72 1.205 4.458 1.317.106.005.217.01.319.01 1.17 0 2.152-.42 2.922-1.256.005-.01.016-.015.02-.026.264-.319.568-.607.887-.916.218-.208.44-.426.659-.654.501-.522.765-1.13.765-1.752 0-.629-.269-1.231-.78-1.738l-2.781-2.79zm1.813 5.334c-.005 0-.005.005 0 0-.198.213-.4.405-.618.618-.33.314-.664.643-.978 1.013-.511.547-1.114.805-1.904.805-.076 0-.157 0-.233-.005-1.505-.096-2.903-.684-3.951-1.185-2.867-1.388-5.385-3.358-7.477-5.855-1.727-2.082-2.882-4.007-3.647-6.074-.47-1.261-.643-2.244-.567-3.17.05-.593.279-1.085.699-1.505l1.727-1.728c.248-.233.512-.36.77-.36.32 0 .578.193.74.355l.015.016c.309.288.603.587.912.906.157.162.319.324.48.492l1.384 1.382c.537.537.537 1.034 0 1.57-.147.148-.289.295-.436.436-.425.436-.83.841-1.271 1.236-.01.01-.02.016-.026.026-.435.435-.354.86-.263 1.15l.015.045c.36.871.866 1.692 1.636 2.67l.005.005c1.398 1.722 2.872 3.064 4.498 4.092.208.132.42.239.623.34.183.091.355.177.502.268.02.01.04.026.06.036.173.086.335.126.502.126.42 0 .684-.263.77-.35l1.732-1.732c.173-.172.446-.38.765-.38.314 0 .573.198.73.37a.967.967 0 00.01.01l2.79 2.792c.523.516.523 1.048.006 1.585zM12.97 5.709a6.423 6.423 0 013.495 1.813 6.456 6.456 0 011.814 3.495.68.68 0 00.673.568c.041 0 .076-.005.117-.01a.685.685 0 00.562-.79 7.812 7.812 0 00-2.193-4.23 7.813 7.813 0 00-4.23-2.193.687.687 0 00-.79.557c-.066.37.177.73.552.79zM23.972 10.587a12.853 12.853 0 00-3.612-6.965A12.853 12.853 0 0013.396.011a.681.681 0 00-.786.557.687.687 0 00.563.79c2.36.4 4.513 1.52 6.225 3.227a11.476 11.476 0 013.227 6.225.68.68 0 00.673.567c.04 0 .076-.005.117-.01a.671.671 0 00.557-.78z"/></g><defs><clipPath id="clip0"><path fill="#fff" d="M0 0h24v24H0z"/></clipPath></defs></svg>