<svg width="24" height="24" viewBox="0 0 24 24" fill="none" xmlns="http://www.w3.org/2000/svg"><path d="M23.567 10.915l-1.791-1.947c-.31-.337-.75-.53-1.208-.53H14.18V1.64C14.18.736 13.444 0 12.54 0H11.6c-.905 0-1.64.736-1.64 1.64v1.173H3.413c-.438 0-.864.178-1.17.49L.47 5.106a1.64 1.64 0 00-.038 2.26l1.791 1.947c.31.338.75.53 1.208.53H9.96V22.36c0 .905.736 1.641 1.641 1.641h.938c.905 0 1.641-.736 1.641-1.64v-6.891h6.406c.438 0 .864-.18 1.17-.491l1.773-1.803a1.64 1.64 0 00.038-2.26zM9.913 8.438h-6.48a.235.235 0 01-.173-.076L1.469 6.415a.234.234 0 01.005-.323l1.772-1.803a.237.237 0 01.168-.07h6.5v4.218zm2.626 14.156h-.938a.235.235 0 01-.234-.235V1.641c0-.13.105-.235.234-.235h.938c.13 0 .235.105.235.235v20.718c0 .13-.105.235-.235.235zm9.987-10.404l-1.773 1.802a.236.236 0 01-.167.07H14.18V9.845h6.388c.065 0 .128.027.172.076l1.791 1.947a.234.234 0 01-.005.323z" fill="#738136"/></svg>