<svg width="22" height="21" viewBox="0 0 22 21" fill="none" xmlns="http://www.w3.org/2000/svg">
<path d="M18.2045 11.4585C17.8225 11.4585 17.5133 11.7677 17.5133 12.1497V18.7157H4.38134V12.1497C4.38134 11.7677 4.07214 11.4585 3.69018 11.4585C3.30823 11.4585 2.99902 11.7677 2.99902 12.1406V20.0798H18.8866V12.1406C18.8957 11.7677 18.5865 11.4585 18.2045 11.4585Z" fill="#D35400" stroke="#D35400" stroke-width="0.5px"/>
<path d="M21.6965 10.7493L10.9471 0L0.197799 10.7493C-0.0659328 11.0131 -0.0659328 11.4496 0.197799 11.7224C0.325117 11.8497 0.497907 11.9225 0.67979 11.9225C0.861674 11.9225 1.03446 11.8497 1.16178 11.7224L10.9471 1.94616L20.7234 11.7224C20.9871 11.9861 21.4236 11.9952 21.6965 11.7224C21.9602 11.4496 21.9602 11.0131 21.6965 10.7493Z" fill="#D35400" stroke="#D35400" stroke-width="0.5px"/>
</svg>
