<svg width="24" height="24" viewBox="0 0 24 24" fill="none" xmlns="http://www.w3.org/2000/svg">
<g clip-path="url(#clip0_9699_5728)">
<path d="M23.9907 7.56748L22.2778 2.56777C22.2182 2.39529 22.1022 2.24654 21.9476 2.14422C21.7929 2.0419 21.6081 1.99165 21.4213 2.00113H2.5787C2.39193 1.99165 2.2071 2.0419 2.05245 2.14422C1.89779 2.24654 1.78181 2.39529 1.72222 2.56777L0.00925459 7.56748C-0.00308487 7.65596 -0.00308487 7.74566 0.00925459 7.83414V12.8339C0.00925459 13.0549 0.0994908 13.2668 0.260112 13.4231C0.420734 13.5793 0.638583 13.6671 0.865736 13.6671H1.72222V22H3.43518V13.6671H8.57407V22H22.2778V13.6671H23.1343C23.3614 13.6671 23.5793 13.5793 23.7399 13.4231C23.9005 13.2668 23.9907 13.0549 23.9907 12.8339V7.83414C24.0031 7.74566 24.0031 7.65596 23.9907 7.56748ZM20.5648 20.3334H10.287V13.6671H20.5648V20.3334ZM22.2778 12.0006H18.8519V8.66742H17.1389V12.0006H12.8565V8.66742H11.1435V12.0006H6.86111V8.66742H5.14815V12.0006H1.72222V7.96746L3.19537 3.66771H20.8046L22.2778 7.96746V12.0006Z" fill="#4c503d" stroke="#4c503d" stroke-width="0"/>
</g>
<defs>
<clipPath id="clip0_9699_5728">
<rect width="24" height="24" fill="white"/>
</clipPath>
</defs>
</svg>
