<svg width="24" height="24" viewBox="0 0 24 24" fill="none" xmlns="http://www.w3.org/2000/svg">
<path d="M17.3069 7.49128C13.023 4.88498 15.0319 1.20638 15.1181 1.05347C15.2432 0.835875 15.2428 0.568172 15.1171 0.350953C14.9914 0.133734 14.7595 0 14.5085 0C12.3033 0 10.5766 0.626531 9.37614 1.86225C7.32494 3.97373 7.42009 7.26 7.46069 8.66334C7.46519 8.81878 7.46908 8.95312 7.46908 9.05288C7.46908 10.0948 7.63624 11.0567 7.78375 11.9054C7.87881 12.4523 7.96089 12.9246 7.97547 13.296C7.99108 13.6935 7.91852 13.7846 7.91542 13.7882C7.90506 13.8005 7.81881 13.8464 7.58561 13.8464C7.31964 13.8464 7.12356 13.7595 6.94985 13.5647C6.27128 12.8039 6.22436 10.7263 6.35411 9.59597C6.37731 9.39666 6.31427 9.19697 6.18081 9.04716C6.04741 8.89734 5.85635 8.81166 5.65572 8.81166C3.83017 8.81166 2.46606 11.797 2.46606 14.4663C2.46606 15.7211 2.71844 16.9503 3.2162 18.1197C3.69742 19.2502 4.38363 20.2706 5.25583 21.1523C7.07233 22.9887 9.46731 24 11.9997 24C14.5422 24 16.9366 23.003 18.7418 21.1927C20.5422 19.387 21.5338 16.9981 21.5338 14.4662C21.5337 11.2355 19.006 8.52492 17.3069 7.49128ZM11.9997 22.5938C7.59424 22.5938 3.87236 18.8718 3.87236 14.4662C3.87236 13.3948 4.12802 12.2701 4.57375 11.3806C4.67786 11.1728 4.78469 10.9946 4.89011 10.8444C4.90188 12.0044 5.08563 13.5857 5.89914 14.4993C6.33799 14.9921 6.92116 15.2526 7.58566 15.2526C8.20642 15.2526 8.67949 15.0645 8.99158 14.6934C9.57508 13.9997 9.39597 12.9692 9.16928 11.6646C9.03152 10.8719 8.87538 9.97345 8.87538 9.05283C8.87538 8.93269 8.8712 8.78902 8.86642 8.62256C8.82794 7.29328 8.74783 4.52723 10.3848 2.84212C11.1197 2.08561 12.1457 1.6252 13.4437 1.46766C13.2971 1.95422 13.1708 2.57189 13.1659 3.26348C13.1552 4.7873 13.738 6.96609 16.576 8.69269C17.9491 9.52805 20.1275 11.8342 20.1275 14.4662C20.1275 18.9478 16.4814 22.5938 11.9997 22.5938Z" fill="#4c503d" stroke="#4c503d" stroke-width="0.2px"/>
</svg>
