<?xml version="1.0" standalone="no"?>
<!DOCTYPE svg PUBLIC "-//W3C//DTD SVG 20010904//EN"
 "http://www.w3.org/TR/2001/REC-SVG-20010904/DTD/svg10.dtd">
<svg version="1.0" xmlns="http://www.w3.org/2000/svg"
 width="512.000000pt" height="512.000000pt" viewBox="0 0 512.000000 512.000000"
 preserveAspectRatio="xMidYMid meet">

<g transform="translate(0.000000,512.000000) scale(0.100000,-0.100000)"
fill="#000000" stroke="none">
<path d="M816 4995 c-116 -41 -113 -36 -423 -845 l-278 -725 0 -1565 0 -1565
22 -40 c25 -47 74 -95 123 -121 34 -18 110 -19 2300 -19 l2265 0 40 22 c47 25
95 74 121 123 18 34 19 93 19 1595 l0 1560 -279 732 c-300 789 -299 788 -390
836 l-41 22 -1720 2 c-1459 2 -1726 0 -1759 -12z m1314 -133 c0 -16 -23 -337
-50 -715 -27 -378 -50 -689 -50 -692 0 -3 -398 -5 -885 -5 -487 0 -885 2 -885
5 0 13 514 1353 526 1373 8 13 29 32 47 42 31 19 55 20 665 20 l632 0 0 -28z
m740 0 c0 -15 22 -336 50 -712 27 -377 50 -688 50 -692 0 -5 -184 -8 -410 -8
-225 0 -410 3 -410 8 0 4 23 315 50 691 28 376 50 697 50 712 l0 29 310 0 310
0 0 -28z m1417 8 c18 -10 39 -29 47 -42 12 -20 526 -1360 526 -1373 0 -3 -398
-5 -885 -5 -487 0 -885 2 -885 5 0 3 -22 314 -50 692 -27 378 -50 699 -50 715
l0 28 633 0 c609 0 633 -1 664 -20z m-2257 -2080 c0 -512 1 -543 19 -578 22
-43 53 -73 98 -96 28 -14 82 -16 413 -16 331 0 385 2 413 16 45 23 76 53 98
96 18 35 19 66 19 578 l0 540 900 0 900 0 0 -1497 c0 -1477 0 -1498 -20 -1531
-11 -18 -34 -41 -52 -52 -33 -20 -55 -20 -2258 -20 -2203 0 -2225 0 -2258 20
-18 11 -41 34 -52 52 -20 33 -20 54 -20 1531 l0 1497 900 0 900 0 0 -540z
m948 9 l-3 -531 -28 -24 -28 -24 -359 0 -359 0 -28 24 -28 24 -3 531 -3 531
421 0 421 0 -3 -531z"/>
<path d="M4001 1553 c-16 -16 -91 -98 -167 -183 -75 -85 -153 -172 -172 -192
-41 -43 -45 -83 -12 -110 17 -14 40 -18 101 -18 l79 0 0 -198 c0 -163 3 -201
16 -220 15 -21 20 -22 199 -22 154 0 186 3 199 16 14 13 16 47 16 220 l0 204
85 0 c72 0 88 3 105 20 40 40 29 57 -171 281 -106 118 -197 217 -203 221 -21
14 -46 8 -75 -19z m158 -247 c61 -68 111 -127 111 -130 0 -3 -20 -6 -44 -6
-75 0 -76 -2 -76 -236 l0 -204 -100 0 -100 0 0 203 c0 233 0 233 -82 239 l-47
3 112 127 c62 70 113 127 113 127 1 1 52 -55 113 -123z"/>
<path d="M650 1063 c-39 -14 -53 -69 -24 -97 14 -14 75 -16 519 -16 l504 0 15
22 c22 31 20 45 -9 73 l-24 25 -483 -1 c-266 0 -490 -3 -498 -6z"/>
<path d="M632 714 c-27 -19 -29 -64 -4 -87 17 -15 67 -17 515 -17 484 0 498 1
517 20 26 26 25 46 -5 75 l-24 25 -488 0 c-426 0 -491 -2 -511 -16z"/>
</g>
</svg>
