<svg width="45" height="45" viewBox="0 0 45 45" fill="none" xmlns="http://www.w3.org/2000/svg">
<path d="M44.5438 13.4191L29.4266 5.11826C29.1633 4.97372 28.844 4.97372 28.5807 5.11826L22.896 8.23975C22.7675 8.27546 22.6477 8.34103 22.5461 8.43167L13.4635 13.4191C13.1823 13.5736 13.0076 13.8689 13.0076 14.1895V15.9865H2.86719C2.38173 15.9865 1.98828 16.3803 1.98828 16.8654C1.98828 17.3509 2.38173 17.7443 2.86719 17.7443H13.0076V20.9084H7.96862C7.48316 20.9084 7.08971 21.3022 7.08971 21.7873C7.08971 22.2727 7.48316 22.6662 7.96862 22.6662H13.0076V27.2365H5.62476C5.1393 27.2365 4.74585 27.6303 4.74585 28.1154C4.74585 28.6009 5.1393 28.9943 5.62476 28.9943H13.0076V30.7916C13.0076 31.1123 13.1823 31.4075 13.4635 31.562L28.5807 39.8629C28.7125 39.9353 28.8581 39.9714 29.0037 39.9714C29.1492 39.9714 29.2948 39.9353 29.4266 39.8629L44.5438 31.562C44.825 31.4075 44.9998 31.1123 44.9998 30.7916V26.8557C44.9998 26.3706 44.6063 25.9768 44.1208 25.9768C43.6354 25.9768 43.2419 26.3706 43.2419 26.8557V30.2715L29.8826 37.6072V23.0105L34.1312 20.6776V24.38C34.1312 24.6911 34.2953 24.9788 34.5627 25.1367C34.7004 25.2181 34.8553 25.2589 35.0101 25.2589C35.1557 25.2589 35.3016 25.2229 35.4338 25.1501L38.6733 23.3672C38.9538 23.2127 39.1283 22.9178 39.1283 22.5972V17.9338L43.2419 15.6751V19.8245C43.2419 20.31 43.6354 20.7034 44.1208 20.7034C44.6063 20.7034 44.9998 20.31 44.9998 19.8245V14.1895C44.9998 13.8689 44.825 13.5736 44.5438 13.4191ZM28.1248 37.6072L14.7654 30.2715V15.6751L28.1248 23.0105V37.6072ZM29.0037 21.4879L15.7126 14.1895L19.8898 11.8958L33.1812 19.1942L29.0037 21.4879ZM35.0073 18.1913L21.716 10.893L23.1569 10.1019L36.4479 17.4003L35.0073 18.1913ZM37.3704 22.0777L35.889 22.8931V19.7126L37.3704 18.8989V22.0777ZM38.2741 16.3974L24.983 9.09909L29.0037 6.89152L42.2947 14.1895L38.2741 16.3974Z" fill="#DE8D1E"/>
<path d="M44.1211 22.4615C43.89 22.4615 43.6631 22.5546 43.4997 22.719C43.3363 22.8825 43.2422 23.1084 43.2422 23.3405C43.2422 23.5715 43.3363 23.7984 43.4997 23.9619C43.6631 24.1253 43.89 24.2194 44.1211 24.2194C44.3521 24.2194 44.5791 24.1253 44.7425 23.9619C44.9059 23.7984 45 23.5715 45 23.3405C45 23.1084 44.9059 22.8825 44.7425 22.719C44.5791 22.5546 44.3521 22.4615 44.1211 22.4615Z" fill="#DE8D1E"/>
<path d="M2.13856 27.2365H0.878906C0.393448 27.2365 0 27.6303 0 28.1154C0 28.6008 0.393448 28.9943 0.878906 28.9943H2.13856C2.62402 28.9943 3.01746 28.6008 3.01746 28.1154C3.01746 27.6303 2.62402 27.2365 2.13856 27.2365Z" fill="#DE8D1E"/>
<path d="M5.33252 21.7873C5.33252 21.5562 5.23845 21.3296 5.07468 21.1662C4.91126 21.0024 4.68467 20.9084 4.45361 20.9084C4.22221 20.9084 3.99562 21.0024 3.8322 21.1662C3.66775 21.3296 3.57471 21.5562 3.57471 21.7873C3.57471 22.0187 3.66775 22.2453 3.8322 22.4087C3.99562 22.5721 4.22221 22.6662 4.45361 22.6662C4.68467 22.6662 4.91126 22.5724 5.07468 22.4087C5.23845 22.2453 5.33252 22.0187 5.33252 21.7873Z" fill="#DE8D1E"/>
</svg>
